<svg width="38" height="38" viewBox="0 0 38 38" fill="none" xmlns="http://www.w3.org/2000/svg">
<path fill-rule="evenodd" clip-rule="evenodd" d="M18.7737 4.84961C19.4145 4.84961 19.934 5.36913 19.934 6.00999V31.5383C19.934 32.1791 19.4145 32.6987 18.7737 32.6987C18.1328 32.6987 17.6133 32.1791 17.6133 31.5383V6.00999C17.6133 5.36913 18.1328 4.84961 18.7737 4.84961Z" fill="black"/>
<path fill-rule="evenodd" clip-rule="evenodd" d="M17.9512 5.18948C18.4044 4.73632 19.1391 4.73632 19.5923 5.18948L30.0356 15.6329C30.4888 16.086 30.4888 16.8207 30.0356 17.2739C29.5825 17.727 28.8478 17.727 28.3946 17.2739L18.7717 7.65101L9.14886 17.2739C8.6957 17.727 7.96099 17.727 7.50784 17.2739C7.05468 16.8207 7.05468 16.086 7.50784 15.6329L17.9512 5.18948Z" fill="black"/>
</svg>
