<svg width="42" height="42" viewBox="0 0 42 42" fill="none" xmlns="http://www.w3.org/2000/svg">
<g clip-path="url(#clip0_12_29)">
<path d="M21 0C9.40968 0 0 9.40968 0 21C0 32.5903 9.40968 42 21 42C32.5693 42 41.9626 32.6239 41.9966 21.0622C41.9988 21.0415 41.9999 21.0208 42 21C42 20.9814 41.9991 20.9627 41.9975 20.9441C41.9672 9.37944 32.5718 0 21 0ZM21 1.26C21.1974 1.26 21.3923 1.26882 21.588 1.2747C23.1504 1.65816 24.3831 1.9866 24.7414 3.507C26.4046 4.53684 28.0493 5.45748 29.2022 6.972C28.2836 7.2408 26.935 6.79392 27.1358 5.69856C26.5343 6.53058 26.2244 6.1614 25.4066 6.14922C26.045 6.2895 26.2996 7.59948 27.1253 6.84558C28.1194 7.84098 25.7674 8.30004 25.2714 7.92246C24.0022 8.04006 25.5209 9.32904 23.9975 9.23328C22.8014 10.1548 23.6926 11.7033 22.0025 12.1351C19.8807 12.7663 22.9883 15.5883 20.8681 15.9331C20.785 15.0318 20.2045 13.4299 18.8639 13.453C17.5858 14.3514 14.7857 12.8054 14.5501 15.3178C13.642 16.5421 14.6714 19.1373 16.312 18.2175C16.6236 17.3334 19.2402 16.1616 18.5758 17.8723C18.3099 18.942 17.5451 19.9311 19.0697 19.5548C21.2146 19.6447 19.6934 21.4595 20.4347 22.5044C21.2663 22.9727 22.5364 22.7947 23.3873 22.7548C23.6048 21.3322 25.8653 21.4179 26.0047 21.3625C26.2408 20.7728 27.3676 21.3767 27.19 22.0206C28.6209 21.9895 28.2895 21.147 29.6289 21.7833C30.7167 20.7757 29.9061 22.9593 31.227 23.1113C32.1086 23.9959 34.1145 23.1727 34.2947 25.0522C34.7785 26.8409 37.43 25.7397 38.2897 26.9858C38.2402 28.9006 36.6223 30.2639 36.1217 32.0594C35.3237 34.057 33.0028 34.5156 31.9553 36.2872C30.4534 37.648 28.7717 38.6278 26.9678 39.4472C26.6129 39.6497 26.0131 39.9403 25.4919 40.2209C24.51 40.449 23.5121 40.6014 22.507 40.677C22.7018 40.1533 23.6212 39.5304 23.7964 38.9911C24.4684 37.5295 26.5033 35.2678 24.7145 34.0003C23.389 33.7676 22.9879 32.5559 22.3553 31.6567C21.9555 30.4513 20.2007 29.5449 21.1747 28.4075C20.7144 27.3038 22.2361 26.2756 22.7245 25.3575C22.8757 24.3764 21.9097 22.8081 21.3797 24.1101C20.2957 23.7754 18.9731 23.071 18.5858 21.9328C17.4342 21.1747 15.8374 20.357 14.7239 19.8261C13.3354 19.8904 12.0679 18.884 11.0552 18.0453C10.957 16.5854 10.088 14.7819 9.387 13.8411C10.0225 14.8218 9.92544 17.4632 8.90274 15.2607C8.60874 14.2611 8.46048 12.9553 8.4 11.8411C7.63728 11.327 7.99134 9.0909 8.7381 8.15892C9.5718 7.50792 10.2493 5.57886 10.2064 5.2542C9.7356 5.42388 10.4912 4.61706 10.8528 4.06392C13.9173 2.22405 17.4256 1.25464 21 1.26V1.26ZM23.8497 1.46748C25.1164 1.65033 26.3622 1.95671 27.5692 2.38224C27.5873 2.42844 27.6058 2.47548 27.6314 2.52924C29.4298 4.57674 25.7821 2.72832 25.0236 2.11554C24.7628 1.89252 24.3264 1.6611 23.8497 1.46748V1.46748ZM21.3994 1.98744C20.9383 2.01096 20.5703 2.23944 21.1768 2.59056C20.7934 3.56328 18.4372 2.22096 18.4103 3.675C19.1402 4.38606 20.6926 4.31256 21.2919 5.0295C20.7682 4.06938 22.126 3.81906 21.7245 4.42134C21.6523 4.8468 22.2382 3.7674 21.6439 4.05888C21.4561 2.92362 20.8303 2.85558 22.1411 2.18358C21.987 2.0328 21.6762 1.97358 21.3994 1.98744V1.98744ZM22.4431 14.7139C23.1139 14.7445 23.696 16.1419 24.0895 16.157C24.1303 16.028 24.5872 17.5262 23.9845 16.9298C23.0387 16.7005 23.2176 14.8138 22.7203 16.3447C21.4738 16.3762 23.0399 14.8802 21.9656 14.9453C22.1285 14.7731 22.2881 14.7067 22.4431 14.7143V14.7139ZM20.8769 16.2078C22.2079 16.2481 23.4746 17.8122 24.4738 17.1091C24.8497 17.3947 24.9472 18.0986 26.108 17.9239C27.5331 18.3872 26.7523 18.9588 25.8812 18.8605C25.6183 18.8215 25.4764 19.3906 25.2412 18.9811C24.6767 19.0457 23.3671 18.685 24.4583 18.2683C24.4625 17.3254 22.4759 18.9664 22.4666 17.7307C21.5788 17.4153 20.9798 16.8046 20.2411 17.4292C19.8295 17.1049 18.7824 17.136 19.9475 16.4703C20.2226 16.2885 20.5474 16.1968 20.8769 16.2078V16.2078ZM28.9019 18.4241C29.0573 18.3637 29.4546 19.1759 29.5949 18.5867C29.8662 19.3007 30.5907 21.2554 29.6339 21.3608C30.1308 20.3108 29.3156 19.3565 28.8397 18.6333C28.8439 18.4989 28.8662 18.438 28.9019 18.4241V18.4241Z" fill="url(#paint0_linear_12_29)"/>
</g>
<defs>
<linearGradient id="paint0_linear_12_29" x1="21" y1="0" x2="21" y2="42" gradientUnits="userSpaceOnUse">
<stop stop-color="#FFFF0B"/>
<stop offset="1" stop-color="#FFC2A8"/>
</linearGradient>
<clipPath id="clip0_12_29">
<rect width="42" height="42" fill="white"/>
</clipPath>
</defs>
</svg>
