<svg width="29" height="23" viewBox="0 0 29 23" fill="none" xmlns="http://www.w3.org/2000/svg">
<rect x="0.996094" y="2.36328" width="25.5508" height="19.8728" rx="1.41949" fill="#CECDCE"/>
<path fill-rule="evenodd" clip-rule="evenodd" d="M4.25743 0.0625C3.74574 0.0625 3.25502 0.265765 2.8932 0.627579C2.53139 0.989393 2.32813 1.48012 2.32812 1.9918L2.32813 17.4262C2.32813 18.4912 3.19245 19.3555 4.25743 19.3555H26.8578C27.3695 19.3555 27.8602 19.1522 28.222 18.7904C28.5838 18.4286 28.7871 17.9379 28.7871 17.4262V1.9918C28.7871 1.48012 28.5838 0.989393 28.222 0.627579C27.8602 0.265765 27.3695 0.0625 26.8578 0.0625H4.25743ZM3.98181 1.9918C3.98181 1.9187 4.01085 1.8486 4.06254 1.79691C4.11422 1.74522 4.18433 1.71619 4.25743 1.71619H26.8578C26.9309 1.71619 27.001 1.74522 27.0527 1.79691C27.1044 1.8486 27.1334 1.9187 27.1334 1.9918V2.9311L15.712 10.6483C15.6664 10.6791 15.6126 10.6956 15.5576 10.6956C15.5026 10.6956 15.4489 10.6791 15.4033 10.6483L3.98181 2.9311V1.9918ZM3.98181 4.92654V17.4262C3.98181 17.5784 4.10529 17.7018 4.25743 17.7018H26.8578C26.9309 17.7018 27.001 17.6728 27.0527 17.6211C27.1044 17.5694 27.1334 17.4993 27.1334 17.4262V4.92654L16.638 12.0187C15.9854 12.4596 15.1299 12.4596 14.4772 12.0187L3.98181 4.92654Z" fill="white"/>
</svg>
