<svg width="32" height="32" viewBox="0 0 32 32" fill="none" xmlns="http://www.w3.org/2000/svg">
<g clip-path="url(#clip0_148_109)">
<path d="M9.63984 19.282L20.3707 16.7053L26.1207 7.37853C26.0039 7.32336 25.877 7.29274 25.7478 7.28858C25.6187 7.28441 25.4901 7.30678 25.3699 7.35431L3.01601 16.1336C2.11992 16.4848 2.24101 17.7926 3.18554 17.9863L9.63984 19.282ZM20.3707 16.7053L11.2988 27.8434C11.164 27.9802 10.9916 28.0739 10.8034 28.1126C10.6153 28.1512 10.4199 28.133 10.242 28.0604C10.0642 27.9877 9.91204 27.8638 9.80481 27.7044C9.69758 27.545 9.64016 27.3573 9.63984 27.1652V19.282L20.3707 16.7053Z" fill="#CECDCE"/>
<path d="M24.9106 7.27811C25.9856 6.57965 27.3725 7.51397 27.129 8.77258L23.8272 25.8412L12.154 17.9773C11.2905 17.3956 11.3011 16.121 12.1742 15.5537L24.9106 7.27811Z" fill="#CECDCE"/>
<path d="M29.0051 4.07547C28.7364 3.84772 28.4109 3.69706 28.0634 3.63949C27.7158 3.58192 27.3592 3.6196 27.0313 3.74851L4.67742 12.5278C4.28533 12.6772 3.95322 12.9513 3.73223 13.308C3.51123 13.6646 3.4136 14.084 3.45437 14.5016C3.49074 14.9191 3.66146 15.3135 3.94091 15.6257C4.22037 15.9379 4.59351 16.1511 5.00437 16.2333L10.6837 17.3595V24.4555C10.6835 24.8394 10.7973 25.2147 11.0107 25.5338C11.2242 25.8529 11.5276 26.1014 11.8825 26.2477C12.1174 26.3423 12.368 26.3916 12.6212 26.393C12.8756 26.3939 13.1277 26.3441 13.3627 26.2463C13.5976 26.1486 13.8108 26.005 13.9895 25.8239L17.138 22.6876L21.8969 26.8774C22.2483 27.1873 22.7 27.3594 23.1684 27.3618C23.3744 27.366 23.5795 27.3332 23.7739 27.2649C24.0935 27.1638 24.3811 26.981 24.6083 26.7347C24.8356 26.4883 24.9946 26.1869 25.0696 25.8602L29.6227 5.97664C29.7023 5.63354 29.6869 5.27524 29.5781 4.94026C29.4692 4.60528 29.2712 4.3063 29.0051 4.07547ZM11.4223 15.5309L5.39187 14.3321L22.2966 7.68406L11.4223 15.5309ZM12.6212 24.4555V18.7157L15.6727 21.404L12.6212 24.4555ZM23.1805 25.4243L13.2024 16.645L27.5762 6.26726L23.1805 25.4243Z" fill="white"/>
</g>
<defs>
<clipPath id="clip0_148_109">
<rect width="31" height="31" fill="white" transform="translate(0.996094 0.236328)"/>
</clipPath>
</defs>
</svg>
