<svg width="47" height="47" viewBox="0 0 47 47" fill="none" xmlns="http://www.w3.org/2000/svg">
<path d="M23.5 0.3125C10.6951 0.3125 0.3125 10.6951 0.3125 23.5C0.3125 36.3049 10.6951 46.6875 23.5 46.6875C36.3049 46.6875 46.6875 36.3049 46.6875 23.5C46.6875 10.6951 36.3049 0.3125 23.5 0.3125ZM32.0607 32.3092L28.6447 32.2937L23.5 26.1604L18.3605 32.2885L14.9393 32.304C14.7115 32.304 14.5252 32.1229 14.5252 31.8899C14.5252 31.7916 14.5614 31.6984 14.6235 31.6208L21.3572 23.5983L14.6235 15.5811C14.561 15.5052 14.5263 15.4102 14.5252 15.3119C14.5252 15.0842 14.7115 14.8979 14.9393 14.8979L18.3605 14.9134L23.5 21.0467L28.6395 14.9186L32.0556 14.903C32.2833 14.903 32.4696 15.0842 32.4696 15.3171C32.4696 15.4154 32.4334 15.5086 32.3713 15.5862L25.6479 23.6035L32.3765 31.626C32.4386 31.7036 32.4748 31.7968 32.4748 31.8951C32.4748 32.1229 32.2885 32.3092 32.0607 32.3092Z" fill="#2E75FF"/>
</svg>
