<svg width="21" height="21" viewBox="0 0 21 21" fill="none" xmlns="http://www.w3.org/2000/svg">
<path d="M20.0786 5.04001C19.7683 4.23796 19.3209 3.51115 18.7613 2.90027C18.2014 2.28756 17.5412 1.80066 16.8167 1.46602C16.0654 1.11765 15.2596 0.939334 14.446 0.941424C13.3047 0.941424 12.1911 1.2903 11.2234 1.94927C10.9919 2.10691 10.772 2.28005 10.5636 2.4687C10.3553 2.28005 10.1354 2.10691 9.90385 1.94927C8.93614 1.2903 7.82259 0.941424 6.68126 0.941424C5.8594 0.941424 5.06302 1.11715 4.31061 1.46602C3.58368 1.80197 2.92851 2.28522 2.36595 2.90027C1.80569 3.51046 1.35814 4.23744 1.04867 5.04001C0.726871 5.87471 0.5625 6.7611 0.5625 7.67334C0.5625 8.53388 0.719926 9.43061 1.03246 10.3428C1.29407 11.1052 1.66911 11.896 2.14833 12.6945C2.90768 13.9582 3.95178 15.2761 5.24822 16.6122C7.39662 18.8269 9.52417 20.3567 9.61446 20.4187L10.1631 20.8116C10.4062 20.9847 10.7188 20.9847 10.9618 20.8116L11.5105 20.4187C11.6008 20.3541 13.726 18.8269 15.8768 16.6122C17.1732 15.2761 18.2173 13.9582 18.9766 12.6945C19.4559 11.896 19.8332 11.1052 20.0925 10.3428C20.4051 9.43061 20.5625 8.53388 20.5625 7.67334C20.5648 6.7611 20.4004 5.87471 20.0786 5.04001ZM10.5636 18.7674C10.5636 18.7674 2.32196 12.8728 2.32196 7.67334C2.32196 5.04001 4.27357 2.90544 6.68126 2.90544C8.37358 2.90544 9.84134 3.9598 10.5636 5.5C11.286 3.9598 12.7537 2.90544 14.446 2.90544C16.8537 2.90544 18.8053 5.04001 18.8053 7.67334C18.8053 12.8728 10.5636 18.7674 10.5636 18.7674Z" fill="#000"/>
</svg>
