<svg width="31" height="31" viewBox="0 0 31 31" fill="none" xmlns="http://www.w3.org/2000/svg">
<path opacity="0.8" d="M19.1938 17.6972L20.0686 16.8223C20.9143 15.977 22.061 15.5021 23.2568 15.5021C24.4525 15.5021 25.5993 15.977 26.4449 16.8223L28.5718 18.9493C29.4172 19.7949 29.8921 20.9417 29.8921 22.1374C29.8921 23.3331 29.4172 24.4799 28.5718 25.3255L24.354 29.5433C24.1488 29.7485 23.8886 29.8899 23.6048 29.9504C23.321 30.011 23.0258 29.9881 22.7547 29.8845C12.9994 26.1598 6.31955 19.4348 2.75113 9.8749C2.65033 9.60481 2.62932 9.31142 2.69062 9.02972C2.75192 8.74802 2.89293 8.48989 3.09685 8.2861L7.31462 4.06833C8.16025 3.22295 9.30702 2.74805 10.5027 2.74805C11.6985 2.74805 12.8452 3.22295 13.6909 4.06833L15.8163 6.19375C16.2351 6.61249 16.5673 7.10964 16.794 7.65679C17.0207 8.20394 17.1373 8.79039 17.1373 9.38263C17.1373 9.97487 17.0207 10.5613 16.794 11.1085C16.5673 11.6556 16.2351 12.1528 15.8163 12.5715L14.9445 13.4433C16.2683 14.9509 17.6876 16.3718 19.1938 17.6972Z" fill="white"/>
<path fill-rule="evenodd" clip-rule="evenodd" d="M19.8474 14.3487L18.4796 15.718C16.5704 14.0888 14.7932 12.3111 13.1646 10.4015L14.5324 9.03364C15.2369 8.32895 15.6326 7.37331 15.6326 6.37687C15.6326 5.38043 15.2369 4.42479 14.5324 3.7201L12.4085 1.59318C12.0595 1.24413 11.6452 0.967239 11.1892 0.778329C10.7333 0.589419 10.2445 0.492188 9.75096 0.492188C9.25739 0.492187 8.76866 0.589419 8.31267 0.778329C7.85669 0.967239 7.44239 1.24413 7.09343 1.59318L2.87566 5.81094C2.77381 5.91307 2.7035 6.04234 2.67312 6.18334C2.64273 6.32433 2.65356 6.47109 2.70431 6.6061C6.19757 15.9646 12.7166 22.5287 22.272 26.1768C22.4074 26.2282 22.5548 26.2393 22.6964 26.2089C22.838 26.1785 22.9678 26.1079 23.0701 26.0054L27.2879 21.7892C27.637 21.4402 27.9139 21.0259 28.1028 20.5699C28.2917 20.1139 28.3889 19.6252 28.3889 19.1316C28.3889 18.6381 28.2917 18.1493 28.1028 17.6934C27.9139 17.2374 27.637 16.8231 27.2879 16.4741L25.1625 14.3487C24.8135 13.9996 24.3992 13.7228 23.9433 13.5338C23.4873 13.3449 22.9985 13.2477 22.505 13.2477C22.0114 13.2477 21.5227 13.3449 21.0667 13.5338C20.6107 13.7228 20.1964 13.9996 19.8474 14.3487ZM26.2252 17.5368C26.4347 17.7462 26.6009 17.9948 26.7143 18.2685C26.8277 18.5421 26.8861 18.8354 26.8861 19.1316C26.8861 19.4278 26.8277 19.7212 26.7143 19.9948C26.6009 20.2684 26.4347 20.5171 26.2252 20.7265L22.3547 24.597C13.605 21.1308 7.6075 15.0972 4.28259 6.52944L8.15614 2.65739C8.36553 2.44787 8.61415 2.28166 8.88779 2.16826C9.16144 2.05486 9.45475 1.99649 9.75096 1.99649C10.0472 1.99649 10.3405 2.05486 10.6141 2.16826C10.8878 2.28166 11.1364 2.44787 11.3458 2.65739L13.4712 4.78281C13.8939 5.20562 14.1313 5.77901 14.1313 6.37687C14.1313 6.97473 13.8939 7.54812 13.4712 7.97093L11.6163 9.82579C11.4837 9.95808 11.4052 10.1351 11.3963 10.3223C11.3874 10.5094 11.4487 10.6931 11.5682 10.8374C13.5197 13.1939 15.6871 15.3628 18.0422 17.3159C18.1863 17.4356 18.3699 17.4971 18.557 17.4885C18.7442 17.4799 18.9213 17.4017 19.0538 17.2693L20.9117 15.4114C21.3344 14.9892 21.9075 14.752 22.505 14.752C23.1025 14.752 23.6755 14.9892 24.0983 15.4114L26.2252 17.5368Z" fill="white"/>
</svg>
