<svg width="164" height="37" viewBox="0 0 164 37" fill="none" xmlns="http://www.w3.org/2000/svg">
<path d="M0.69304 19H6.36493V11.8675H18.5364V19H24.2083V0.888901H18.5364V7.48582H6.36493V0.888901H0.69304V19ZM38.9376 19.2678C48.2122 19.2678 50.0623 13.0847 50.0623 9.67668V0.888901H44.3904V9.33588C44.3904 11.6728 43.3193 14.5696 38.4507 14.5696C33.5091 14.5696 32.4624 11.6728 32.4624 9.33588V0.888901H26.7662V9.67668C26.7662 13.0847 28.3484 19.2678 38.0613 19.2678H38.9376ZM63.9556 19.3165C73.0598 19.3165 74.5691 16.2493 74.5691 13.2551V12.9143C74.5691 9.31154 71.8184 7.65622 65.0023 7.53451L61.9595 7.48582C58.2594 7.41279 57.7725 6.70685 57.7725 5.92788C57.7725 5.1489 58.089 4.36993 62.4707 4.36993H62.8602C67.607 4.36993 67.9722 5.85485 68.0939 6.53645H73.9849V6.29302C73.9849 3.56662 72.0374 0.572443 63.4687 0.572443H61.7891C53.5369 0.572443 51.9302 3.39622 51.9302 6.09828V6.31736C51.9302 9.14114 53.9994 11.4294 60.7667 11.6241L63.8826 11.6971C68.0696 11.8189 68.6294 12.4761 68.6294 13.5229C68.6294 14.4966 68.0939 15.4459 63.3227 15.4459H62.9819C58.3081 15.4459 57.6751 13.6689 57.6021 12.5735H51.6868V12.8413C51.6868 15.2269 52.7822 19.3165 62.2759 19.3165H63.9556ZM83.04 19H88.7606V5.17325H96.5747V0.888901H75.2503V5.17325H83.04V19ZM98.6351 0.888901V19H116.892V14.4966H104.307V0.888901H98.6351ZM118.984 0.888901V19H138.312V14.7887H124.583V11.8189H137.753V7.68056H124.583V5.00285H138.069V0.888901H118.984ZM146.336 5.00285H154.929C156.585 5.00285 157.218 5.80616 157.218 6.75553V6.77988C157.218 7.77793 156.56 8.55691 154.929 8.55691H146.336V5.00285ZM146.336 12.5735H153.737C156.536 12.5735 157.51 13.5472 157.51 15.7624V17.8559C157.51 18.5131 157.607 18.7809 157.778 19H163.547V18.8783C163.376 18.5862 163.206 18.1237 163.206 16.6631V14.0097C163.206 11.6728 161.624 10.3826 159.774 9.84708C160.967 9.45759 163.133 8.48388 163.133 5.87919V5.58708C163.133 2.98239 161.307 0.888901 155.27 0.888901H140.665V19H146.336V12.5735ZM62.1336 33.0592C61.7573 33.4624 61.2869 33.776 60.7224 34C60.158 34.2329 59.5218 34.3449 58.814 34.336C58.169 34.336 57.5866 34.2598 57.0669 34.1075C56.5562 33.9552 56.1172 33.7223 55.7499 33.4087C55.3825 33.0951 55.1003 32.7009 54.9032 32.226C54.7061 31.7422 54.6031 31.1733 54.5941 30.5192C54.5941 29.8473 54.6882 29.2649 54.8763 28.7721C55.0734 28.2793 55.3557 27.8717 55.723 27.5491C56.0993 27.2266 56.5518 26.9892 57.0804 26.8369C57.6179 26.6756 58.2272 26.5949 58.9081 26.5949C60.2789 26.5949 61.3272 26.9444 62.0529 27.6432V24.5925H63.3028V34H62.0529L62.1336 33.0592ZM55.8708 30.4789C55.8888 31.4555 56.1531 32.1499 56.6638 32.562C57.1745 32.9652 57.9136 33.1668 58.8812 33.1668C59.3651 33.1668 59.7996 33.1175 60.1849 33.0189C60.5791 32.9204 60.9106 32.7636 61.1794 32.5486C61.4481 32.3335 61.6542 32.0558 61.7976 31.7153C61.9499 31.3749 62.0305 30.9627 62.0395 30.4789C62.0216 29.4934 61.7528 28.7945 61.2331 28.3824C60.7224 27.9613 59.9474 27.7462 58.9081 27.7373C57.8688 27.7373 57.1073 27.9478 56.6234 28.3689C56.1396 28.79 55.8888 29.4934 55.8708 30.4789ZM69.2436 23.9205V25.466H67.5637V23.9205H69.2436ZM71.4611 32.898V34H64.3785V32.898H67.9803V27.9792H65.4134V26.8637H69.2436V32.898H71.4611ZM81.4785 33.3952C81.5054 33.9597 81.3889 34.4345 81.1291 34.8198C80.8782 35.2051 80.5377 35.5142 80.1077 35.7471C79.6866 35.989 79.2072 36.1637 78.6697 36.2712C78.141 36.3788 77.608 36.4325 77.0704 36.4325H76.7075C76.0266 36.4325 75.4129 36.3653 74.8663 36.2309C74.3198 36.0965 73.8539 35.9039 73.4687 35.653C73.0834 35.4022 72.7877 35.0931 72.5817 34.7257C72.3756 34.3584 72.2726 33.9373 72.2726 33.4624H73.5762C73.5762 33.7133 73.6344 33.9507 73.7509 34.1747C73.8763 34.3987 74.0645 34.5958 74.3153 34.766C74.5662 34.9363 74.8843 35.0707 75.2695 35.1692C75.6637 35.2767 76.1341 35.3305 76.6806 35.3305H76.9763C77.0121 35.3305 77.1152 35.326 77.2854 35.3171C77.4646 35.3081 77.6752 35.2857 77.9171 35.2499C78.159 35.214 78.4143 35.1558 78.6831 35.0751C78.9608 35.0035 79.2117 34.896 79.4357 34.7526C79.6687 34.6182 79.8568 34.448 80.0002 34.2419C80.1525 34.0448 80.2286 33.7984 80.2286 33.5027C80.2286 33.234 80.1704 33.0189 80.0539 32.8577C79.9374 32.6964 79.812 32.5754 79.6776 32.4948C79.3192 32.7367 78.8981 32.9204 78.4143 33.0458C77.9305 33.1623 77.3974 33.2205 76.815 33.2205C76.1968 33.2205 75.6279 33.1578 75.1082 33.0324C74.5976 32.898 74.1541 32.6964 73.7778 32.4276C73.4104 32.1588 73.1192 31.8184 72.9042 31.4062C72.6981 30.9851 72.5906 30.4879 72.5817 29.9145C72.5817 29.35 72.6847 28.8572 72.8908 28.4361C73.1058 28.015 73.397 27.6656 73.7643 27.3879C74.1406 27.1101 74.5841 26.9041 75.0948 26.7697C75.6145 26.6353 76.1789 26.5681 76.7882 26.5681C77.1913 26.5681 77.5676 26.5949 77.9171 26.6487C78.2754 26.7025 78.6069 26.7876 78.9116 26.9041H81.6397V28.2345L80.4033 28.0061C80.5825 28.2569 80.7169 28.5436 80.8065 28.8662C80.9051 29.1798 80.9543 29.5337 80.9543 29.9279C80.9364 30.6715 80.7617 31.2853 80.4302 31.7691C80.6811 31.9124 80.914 32.114 81.1291 32.3738C81.3441 32.6337 81.4606 32.9741 81.4785 33.3952ZM73.845 29.901C73.8539 30.3132 73.9256 30.6626 74.06 30.9493C74.2033 31.227 74.4004 31.4555 74.6513 31.6347C74.9111 31.8049 75.2202 31.9303 75.5786 32.011C75.946 32.0827 76.3581 32.1185 76.815 32.1185C77.263 32.1185 77.6617 32.0827 78.0111 32.011C78.3695 31.9303 78.6741 31.8049 78.925 31.6347C79.1759 31.4645 79.364 31.236 79.4895 30.9493C79.6239 30.6626 79.6955 30.3132 79.7045 29.901C79.7045 29.4799 79.6373 29.1305 79.5029 28.8527C79.3685 28.566 79.1714 28.3331 78.9116 28.1539C78.6607 27.9747 78.3561 27.8493 77.9977 27.7776C77.6393 27.697 77.2317 27.6567 76.7747 27.6567C76.3267 27.6567 75.9191 27.697 75.5517 27.7776C75.1934 27.8493 74.8843 27.9747 74.6244 28.1539C74.3736 28.3241 74.1809 28.5526 74.0465 28.8393C73.9122 29.126 73.845 29.4799 73.845 29.901ZM87.3157 23.9205V25.466H85.6358V23.9205H87.3157ZM89.5332 32.898V34H82.4507V32.898H86.0525V27.9792H83.4855V26.8637H87.3157V32.898H89.5332ZM94.4303 33.9731C93.7583 33.9821 93.2342 33.9283 92.8579 33.8118C92.4816 33.6954 92.1994 33.4893 92.0112 33.1936C91.832 32.889 91.72 32.4724 91.6752 31.9438C91.6394 31.4062 91.6215 30.7253 91.6215 29.901V27.9926H90.3447V26.8906H91.6349V25.3182H92.8848L92.6563 26.8906H94.9947V27.9926H92.8848L92.8713 29.901C92.8713 30.6088 92.8803 31.1598 92.8982 31.554C92.9251 31.9483 92.9878 32.2395 93.0863 32.4276C93.1939 32.6158 93.3507 32.7277 93.5567 32.7636C93.7718 32.7994 94.0674 32.8173 94.4437 32.8173L94.4303 33.9731ZM102.303 32.011C102.294 32.7725 102.056 33.3504 101.59 33.7447C101.134 34.1389 100.466 34.336 99.588 34.336H99.1311C98.2531 34.336 97.5721 34.1389 97.0883 33.7447C96.6045 33.3415 96.3536 32.7322 96.3357 31.9169C96.3357 31.1195 96.5821 30.5327 97.0749 30.1564C97.5677 29.7711 98.2531 29.5785 99.1311 29.5785H103.257C103.212 29.1843 103.1 28.8617 102.921 28.6108C102.742 28.351 102.531 28.1494 102.289 28.0061C102.047 27.8538 101.783 27.7507 101.496 27.697C101.219 27.6343 100.959 27.6029 100.717 27.6029H100.583C100.341 27.6029 100.09 27.6208 99.8299 27.6567C99.5701 27.6925 99.3192 27.7597 99.0773 27.8582C98.8354 27.9478 98.6159 28.0733 98.4188 28.2345C98.2217 28.3958 98.0739 28.6064 97.9753 28.8662H96.6583C96.7031 28.5168 96.8285 28.1987 97.0346 27.912C97.2496 27.6253 97.5273 27.3789 97.8678 27.1728C98.2172 26.9578 98.6159 26.7921 99.0639 26.6756C99.5208 26.5591 100.005 26.5009 100.515 26.5009H100.623C101.322 26.5009 101.918 26.5815 102.41 26.7428C102.903 26.9041 103.306 27.1504 103.62 27.4819C103.933 27.8134 104.162 28.2345 104.305 28.7452C104.449 29.2559 104.525 29.8607 104.534 30.5595V34H103.284V30.6536L101.9 30.6402C102.168 31.0075 102.303 31.4645 102.303 32.011ZM97.5856 31.9169C97.5945 32.347 97.72 32.674 97.9619 32.898C98.2038 33.113 98.5935 33.2205 99.1311 33.2205H99.588C100.108 33.2205 100.488 33.113 100.73 32.898C100.972 32.6829 101.102 32.3559 101.12 31.9169C101.102 31.4779 100.977 31.1553 100.744 30.9493C100.511 30.7432 100.126 30.6402 99.588 30.6402H99.1311C98.5935 30.6402 98.2038 30.7432 97.9619 30.9493C97.72 31.1553 97.5945 31.4779 97.5856 31.9169ZM108.082 24.5791V34H106.818V24.5925L108.082 24.5791Z" fill="white"/>
</svg>
