<?xml version="1.0" encoding="utf-8"?>
<!-- Generator: Adobe Illustrator 25.0.0, SVG Export Plug-In . SVG Version: 6.00 Build 0)  -->
<svg version="1.1" id="Layer_1" xmlns="http://www.w3.org/2000/svg" xmlns:xlink="http://www.w3.org/1999/xlink" x="0px" y="0px"
	 viewBox="0 0 1302.8 155" style="enable-background:new 0 0 1302.8 155;" xml:space="preserve">
<style type="text/css">
	.st0{fill-rule:evenodd;clip-rule:evenodd;fill:#FFFFFF;}
	.st1{fill:#FFFFFF;}
	.st2{fill:url(#SVGID_1_);}
	.st3{fill:url(#SVGID_2_);}
	.st4{fill:#F2F2F2;}
	.st5{opacity:0.47;}
	.st6{opacity:0.15;}
	.st7{fill:url(#SVGID_3_);}
	.st8{opacity:0.53;fill:#E6E6E6;}
	.st9{filter:url(#Adobe_OpacityMaskFilter);}
	.st10{fill:url(#SVGID_5_);}
	.st11{mask:url(#SVGID_4_);fill-rule:evenodd;clip-rule:evenodd;fill:#FFFFFF;}
	.st12{filter:url(#Adobe_OpacityMaskFilter_1_);}
	.st13{fill:url(#SVGID_7_);}
	.st14{mask:url(#SVGID_6_);fill-rule:evenodd;clip-rule:evenodd;fill:#FFFFFF;}
	.st15{filter:url(#Adobe_OpacityMaskFilter_2_);}
	.st16{fill:url(#SVGID_9_);}
	.st17{mask:url(#SVGID_8_);fill-rule:evenodd;clip-rule:evenodd;fill:#FFFFFF;}
	.st18{filter:url(#Adobe_OpacityMaskFilter_3_);}
	.st19{fill:url(#SVGID_11_);}
	.st20{mask:url(#SVGID_10_);fill-rule:evenodd;clip-rule:evenodd;fill:#FFFFFF;}
	.st21{fill-rule:evenodd;clip-rule:evenodd;fill:#1133F5;}
	.st22{fill:#71FA4C;}
	.st23{fill:url(#SVGID_12_);}
	.st24{fill:url(#SVGID_13_);}
	.st25{opacity:0.38;fill:#6EE048;}
	.st26{fill:url(#SVGID_14_);}
	.st27{filter:url(#Adobe_OpacityMaskFilter_4_);}
	.st28{fill:url(#SVGID_16_);}
	.st29{mask:url(#SVGID_15_);fill-rule:evenodd;clip-rule:evenodd;fill:url(#SVGID_17_);}
	.st30{filter:url(#Adobe_OpacityMaskFilter_5_);}
	.st31{fill:url(#SVGID_19_);}
	.st32{mask:url(#SVGID_18_);fill-rule:evenodd;clip-rule:evenodd;fill:url(#SVGID_20_);}
	.st33{filter:url(#Adobe_OpacityMaskFilter_6_);}
	.st34{fill:url(#SVGID_22_);}
	.st35{mask:url(#SVGID_21_);fill-rule:evenodd;clip-rule:evenodd;fill:url(#SVGID_23_);}
	.st36{filter:url(#Adobe_OpacityMaskFilter_7_);}
	.st37{fill:url(#SVGID_25_);}
	.st38{mask:url(#SVGID_24_);fill-rule:evenodd;clip-rule:evenodd;fill:url(#SVGID_26_);}
	.st39{fill:#00FF00;}
	.st40{fill:#91D402;}
	.st41{fill:#BF00B5;}
	.st42{fill:#7B00FF;}
	.st43{fill:#0D2DFF;}
	.st44{stroke:#FFFFFF;stroke-width:3;stroke-miterlimit:10;}
	.st45{fill-rule:evenodd;clip-rule:evenodd;fill:#0D2DFF;}
	.st46{fill-rule:evenodd;clip-rule:evenodd;}
</style>
<g>
	<polygon class="st45" points="1272.4,155 669,155 699.4,0 1302.8,0 	"/>
	<g>
		<path class="st39" d="M30.7,84.2l-9.6,45.6H0l21.7-102h21.1l-8.3,38.9h39.9l8.3-38.9h21.2l-21.7,102H61l9.6-45.6H30.7z"/>
		<path class="st39" d="M206.2,27.8l-13.4,62.7c-2.3,10.8-5.8,19.3-10.5,25.3c-8.6,11.1-21.8,16.6-39.5,16.6
			c-17.7,0-28.5-5.5-32.5-16.6c-2.1-6-2-14.5,0.3-25.3l13.4-62.7h21.7l-13.4,62.7c-1.5,7-1.7,12.1-0.8,15.4
			c1.4,5.7,6.4,8.6,15.1,8.6c8.6,0,14.8-2.9,18.6-8.6c2.4-3.2,4.3-8.4,5.7-15.4l13.4-62.7H206.2z"/>
		<path class="st39" d="M252.8,67.5l16.7,4.2c7.3,1.8,12.6,4.3,15.9,7.4c5.1,4.8,6.6,11.7,4.7,20.8c-2,9.3-7.2,17.1-15.6,23.2
			c-8.4,6.2-19.2,9.2-32.2,9.2c-13.3,0-23.1-3-29.4-9.1c-6.3-6.1-8.4-14.4-6.1-25H227c-0.3,4.7,0.2,8.1,1.6,10.5
			c2.6,4.2,8.1,6.3,16.5,6.3c5,0,9.2-0.6,12.6-1.7c6.4-2.1,10.2-6.1,11.4-11.8c0.7-3.4-0.2-6-2.8-7.8c-2.5-1.8-6.8-3.4-12.9-4.8
			l-10.3-2.4c-10.1-2.4-16.9-5-20.4-7.8c-5.9-4.7-7.7-12.1-5.6-22.1c1.9-9.1,6.9-16.7,14.8-22.8c7.9-6,18.3-9.1,31.2-9.1
			c10.8,0,19.3,2.8,25.7,8.5s8.6,14,6.6,24.8H275c1-6.1-0.8-10.5-5.2-13.1c-3-1.7-6.9-2.6-11.8-2.6c-5.5,0-10.1,1.1-13.9,3.3
			c-3.8,2.2-6.1,5.3-6.9,9.3c-0.8,3.6,0.3,6.4,3.1,8.2C242.2,64.5,246.3,65.9,252.8,67.5z"/>
		<path class="st39" d="M308.8,45.8l3.9-18.1h82.7l-3.9,18.1h-30.5l-17.8,84h-21.5l17.8-84H308.8z"/>
		<path class="st39" d="M429.1,27.8l-17.8,83.7h50.5l-3.9,18.3h-71.9l21.7-102H429.1z"/>
		<path class="st39" d="M554.5,111.5l-3.9,18.3h-77.3l21.7-102h74.8l-3.9,18.1h-54l-4.6,21.7h49.6l-3.8,17.7h-49.6l-5.5,26.2H554.5z
			"/>
		<path class="st39" d="M629.1,124.3c0-2.9,0.4-5.8,1-8.8l1.9-9.5c1.3-6.5,1-10.8-0.8-13c-1.8-2.2-5.9-3.3-12.1-3.3h-22l-8.4,40
			h-20.8l21.7-102h50.1c7.1,0.1,12.4,1,15.9,2.6c3.5,1.6,6.3,4,8.3,7.1c1.7,2.6,2.8,5.4,3.4,8.6s0.5,6.7-0.3,10.7
			c-1.1,4.8-3.3,9.6-6.8,14.3c-3.4,4.7-8.2,8-14.2,9.9c4.3,1.9,7,4.6,8.3,8.1c1.2,3.5,1.1,8.8-0.5,16l-1.5,6.9
			c-1,4.7-1.5,7.8-1.5,9.5c0,2.6,0.9,4.6,2.6,5.8l-0.5,2.6h-23.5C629.2,127.5,629.1,125.7,629.1,124.3z M631.2,45.5h-24.8l-5.8,27.4
			h24.2c4.8,0,8.5-0.6,11.1-1.7c4.7-1.9,7.6-5.8,8.9-11.5c1.3-6.2,0.1-10.3-3.5-12.5C639.2,46.1,635.8,45.5,631.2,45.5z"/>
		<path class="st1" d="M804.6,42.9c2.5,5.1,3.7,10.6,3.8,16.5c0,5.9-0.5,11.5-1.6,16.9c-2.9,13.6-8.1,25.1-15.5,34.5
			c-10.1,12.7-22.8,19-38.2,19h-44l21.7-102h44c6.3,0.1,11.4,0.8,15.3,2.2C796.6,32.3,801.5,36.6,804.6,42.9z M784.7,77.7
			c2.2-10.4,2.3-18.4,0.2-23.9c-2.1-5.6-8-8.3-17.7-8.3h-19.7l-14.1,66.6h19.7c10.1,0,18.1-5,24.2-14.9
			C780.7,91.7,783.1,85.3,784.7,77.7z"/>
		<path class="st1" d="M809.8,129.8l21.7-102h21.2l-21.7,102H809.8z"/>
		<path class="st1" d="M906.2,92.1l3.7-17h42.5l-11.6,54.8h-14.1l0.6-12.7c-5.2,4.8-9.6,8.3-13.3,10.2c-6.4,3.5-13.7,5.2-21.9,5.2
			c-13.5,0-23.6-4.7-30.3-14.1c-7-9.4-8.7-22.3-5.3-38.6c3.5-16.5,10.9-29.8,22.1-39.7c11.2-10,24.3-15,39.3-15
			c13,0,22.7,3.3,29.1,9.9c6.5,6.6,9.2,14.8,8.3,24.6h-21c-0.1-7-3-11.8-8.7-14.6c-3.2-1.5-6.9-2.3-11.2-2.3
			c-8.2,0-15.6,3.1-22.2,9.3c-6.6,6.2-11.2,15.5-13.9,28c-2.6,12.6-1.7,21.4,2.9,26.7c4.6,5.2,10.5,7.8,17.8,7.8
			c7.2,0,13.5-2.1,18.9-6.2c5.5-4.1,9.4-9.5,11.9-16.2H906.2z"/>
		<path class="st1" d="M959.4,129.8l21.7-102h21.2l-21.7,102H959.4z"/>
		<path class="st1" d="M1009.8,45.8l3.9-18.1h82.7l-3.9,18.1h-30.5l-17.8,84h-21.5l17.8-84H1009.8z"/>
		<path class="st1" d="M1151.6,27.8l14.5,102H1143l-2.1-21h-37.6l-11.5,21h-22.3l58.1-102H1151.6z M1134.4,51.1l-21.7,40.2h25.9
			L1134.4,51.1z"/>
		<path class="st1" d="M1222,27.8l-17.8,83.7h50.5l-3.9,18.3H1179l21.7-102H1222z"/>
	</g>
</g>
</svg>
