<svg width="206" height="47" viewBox="0 0 206 47" fill="none" xmlns="http://www.w3.org/2000/svg">
<path d="M0.660297 36L8.79998 12.7134H10.7464L18.9215 36H16.9043L12.3744 22.4103C11.9025 21.0419 11.4542 19.7206 11.0296 18.4466C10.6285 17.149 10.2274 15.8041 9.82629 14.4121H9.68473C9.28365 15.8041 8.87076 17.149 8.44608 18.4466C8.045 19.7206 7.62032 21.0419 7.17205 22.4103L2.57135 36H0.660297ZM4.48241 28.1788V26.6217H14.9932V28.1788H4.48241ZM29.1235 36V12.7134H35.5291C37.0862 12.7134 38.4428 12.914 39.5989 13.315C40.7786 13.6925 41.6869 14.306 42.3239 15.1553C42.961 15.9811 43.2795 17.0546 43.2795 18.3758C43.2795 19.5555 42.9728 20.6054 42.3593 21.5255C41.7459 22.4457 40.8612 23.0827 39.7051 23.4366V23.5781C41.1915 23.8377 42.3947 24.4393 43.3149 25.383C44.235 26.3267 44.6951 27.6008 44.6951 29.2051C44.6951 30.7151 44.3294 31.9773 43.598 32.9919C42.8902 33.9828 41.8875 34.7378 40.5898 35.2568C39.2922 35.7523 37.7586 36 35.9891 36H29.1235ZM30.9992 34.4428H35.5645C37.8294 34.4428 39.6107 34.03 40.9083 33.2042C42.206 32.3548 42.8548 31.0218 42.8548 29.2051C42.8548 27.5772 42.2178 26.3739 40.9437 25.5954C39.6933 24.7932 37.9002 24.3921 35.5645 24.3921H30.9992V34.4428ZM30.9992 22.8703H34.9274C37.2396 22.8703 38.8911 22.4928 39.882 21.7379C40.8965 20.9593 41.4038 19.8976 41.4038 18.5528C41.4038 16.972 40.8612 15.8631 39.7759 15.2261C38.7142 14.5655 37.157 14.2352 35.1044 14.2352H30.9992V22.8703ZM62.3574 36.4247C60.6587 36.4247 59.1487 36.1062 57.8275 35.4692C56.5063 34.8085 55.3738 33.9592 54.4301 32.9211L55.5979 31.647C56.4473 32.5908 57.45 33.3458 58.6061 33.912C59.7857 34.4546 61.0362 34.726 62.3574 34.726C64.1033 34.726 65.4717 34.3131 66.4626 33.4873C67.4772 32.6615 67.9844 31.5763 67.9844 30.2314C67.9844 29.2877 67.7957 28.5327 67.4182 27.9665C67.0407 27.4002 66.5334 26.9402 65.8964 26.5863C65.283 26.2088 64.5988 25.8431 63.8438 25.4892L60.3402 23.932C59.656 23.6253 58.9482 23.236 58.2168 22.7642C57.509 22.2923 56.8956 21.6907 56.3765 20.9593C55.881 20.2043 55.6333 19.2488 55.6333 18.0927C55.6333 16.9602 55.9282 15.9575 56.5181 15.0845C57.1315 14.2116 57.9573 13.5274 58.9954 13.0319C60.0335 12.5365 61.2013 12.2887 62.499 12.2887C63.9146 12.2887 65.1768 12.5601 66.2857 13.1027C67.4182 13.6454 68.3501 14.306 69.0815 15.0845L68.0198 16.3232C67.3356 15.5918 66.5334 15.0138 65.6133 14.5891C64.6931 14.1644 63.655 13.9521 62.499 13.9521C61.0126 13.9521 59.8093 14.3178 58.8892 15.0492C57.9691 15.7805 57.509 16.7597 57.509 17.9865C57.509 18.8595 57.7213 19.5673 58.146 20.1099C58.5707 20.6526 59.0897 21.1008 59.7032 21.4547C60.3402 21.785 60.9418 22.0918 61.5081 22.3749L65.0117 23.8966C65.8846 24.2741 66.6868 24.7224 67.4182 25.2415C68.1496 25.7369 68.7394 26.3739 69.1877 27.1525C69.6595 27.9311 69.8955 28.9102 69.8955 30.0899C69.8955 31.2931 69.5888 32.3784 68.9753 33.3458C68.3619 34.2895 67.4772 35.0445 66.3211 35.6107C65.1886 36.1534 63.8674 36.4247 62.3574 36.4247ZM86.2611 36V14.306H78.9V12.7134H95.4979V14.306H88.1368V36H86.2611ZM106.481 36V12.7134H113.24C114.798 12.7134 116.154 12.914 117.31 13.315C118.49 13.7161 119.398 14.3767 120.035 15.2969C120.696 16.217 121.026 17.4321 121.026 18.942C121.026 20.3812 120.696 21.5845 120.035 22.5518C119.398 23.4956 118.49 24.2151 117.31 24.7106C116.154 25.2061 114.798 25.4538 113.24 25.4538H108.357V36H106.481ZM119.327 36L112.851 24.9229L114.55 24.2505L121.522 36H119.327ZM108.357 23.8966H112.816C114.845 23.8966 116.39 23.4838 117.452 22.658C118.537 21.8322 119.08 20.5936 119.08 18.942C119.08 17.2197 118.537 16.0165 117.452 15.3323C116.39 14.6245 114.845 14.2706 112.816 14.2706H108.357V23.8966ZM129.267 36L137.406 12.7134H139.353L147.528 36H145.511L140.981 22.4103C140.509 21.0419 140.061 19.7206 139.636 18.4466C139.235 17.149 138.834 15.8041 138.433 14.4121H138.291C137.89 15.8041 137.477 17.149 137.053 18.4466C136.651 19.7206 136.227 21.0419 135.779 22.4103L131.178 36H129.267ZM133.089 28.1788V26.6217H143.6V28.1788H133.089ZM166.082 36.4247C164.171 36.4247 162.472 35.941 160.986 34.9737C159.499 33.9828 158.332 32.579 157.482 30.7623C156.656 28.9456 156.244 26.7986 156.244 24.3213C156.244 22.4574 156.48 20.7941 156.951 19.3313C157.447 17.845 158.143 16.5709 159.039 15.5092C159.936 14.4475 160.998 13.6454 162.225 13.1027C163.451 12.5601 164.808 12.2887 166.294 12.2887C167.663 12.2887 168.866 12.5719 169.904 13.1381C170.942 13.7043 171.78 14.3532 172.417 15.0845L171.32 16.3232C170.706 15.6154 169.975 15.0492 169.126 14.6245C168.3 14.1762 167.356 13.9521 166.294 13.9521C164.643 13.9521 163.215 14.3767 162.012 15.2261C160.809 16.0755 159.877 17.2669 159.216 18.8005C158.556 20.3341 158.225 22.1625 158.225 24.2859C158.225 26.4093 158.544 28.2496 159.181 29.8068C159.818 31.3639 160.726 32.579 161.906 33.4519C163.109 34.3013 164.537 34.726 166.188 34.726C167.368 34.726 168.418 34.49 169.338 34.0182C170.282 33.5227 171.155 32.8149 171.957 31.8948L173.054 33.098C172.157 34.1125 171.155 34.9265 170.046 35.5399C168.937 36.1298 167.616 36.4247 166.082 36.4247ZM189.312 36V14.306H181.951V12.7134H198.549V14.306H191.188V36H189.312Z" fill="white"/>
<path d="M0.412567 40.4237H199.575V42.1932H0.412567V40.4237Z" fill="white"/>
<a href="https://www.instagram.com/abstractstoreofficial/?igshid=YmMyMTA2M2Y=">
<rect fill="black" fill-opacity="0" x="0.412567" y="0.35498" width="199.163" height="46.29"/>
</a>
<path d="M6.10561 36L14.2453 12.7134H16.1917L24.3668 36H22.3496L17.8197 22.4103C17.3478 21.0419 16.8995 19.7206 16.4749 18.4466C16.0738 17.149 15.6727 15.8041 15.2716 14.4121H15.13C14.729 15.8041 14.3161 17.149 13.8914 18.4466C13.4903 19.7206 13.0656 21.0419 12.6174 22.4103L8.01667 36H6.10561ZM9.92772 28.1788V26.6217H20.4385V28.1788H9.92772ZM34.5688 36V12.7134H40.9744C42.5315 12.7134 43.8882 12.914 45.0442 13.315C46.2239 13.6925 47.1322 14.306 47.7692 15.1553C48.4063 15.9811 48.7248 17.0546 48.7248 18.3758C48.7248 19.5555 48.4181 20.6054 47.8046 21.5255C47.1912 22.4457 46.3065 23.0827 45.1504 23.4366V23.5781C46.6368 23.8377 47.84 24.4393 48.7602 25.383C49.6803 26.3267 50.1404 27.6008 50.1404 29.2051C50.1404 30.7151 49.7747 31.9773 49.0433 32.9919C48.3355 33.9828 47.3328 34.7378 46.0351 35.2568C44.7375 35.7523 43.2039 36 41.4344 36H34.5688ZM36.4445 34.4428H41.0098C43.2747 34.4428 45.056 34.03 46.3536 33.2042C47.6513 32.3548 48.3001 31.0218 48.3001 29.2051C48.3001 27.5772 47.6631 26.3739 46.389 25.5954C45.1386 24.7932 43.3455 24.3921 41.0098 24.3921H36.4445V34.4428ZM36.4445 22.8703H40.3727C42.6849 22.8703 44.3364 22.4928 45.3273 21.7379C46.3419 20.9593 46.8491 19.8976 46.8491 18.5528C46.8491 16.972 46.3065 15.8631 45.2212 15.2261C44.1595 14.5655 42.6023 14.2352 40.5497 14.2352H36.4445V22.8703ZM67.8027 36.4247C66.104 36.4247 64.594 36.1062 63.2728 35.4692C61.9516 34.8085 60.8191 33.9592 59.8754 32.9211L61.0432 31.647C61.8926 32.5908 62.8953 33.3458 64.0514 33.912C65.2311 34.4546 66.4815 34.726 67.8027 34.726C69.5486 34.726 70.917 34.3131 71.908 33.4873C72.9225 32.6615 73.4297 31.5763 73.4297 30.2314C73.4297 29.2877 73.241 28.5327 72.8635 27.9665C72.486 27.4002 71.9787 26.9402 71.3417 26.5863C70.7283 26.2088 70.0441 25.8431 69.2891 25.4892L65.7855 23.932C65.1013 23.6253 64.3935 23.236 63.6621 22.7642C62.9543 22.2923 62.3409 21.6907 61.8218 20.9593C61.3264 20.2043 61.0786 19.2488 61.0786 18.0927C61.0786 16.9602 61.3735 15.9575 61.9634 15.0845C62.5768 14.2116 63.4026 13.5274 64.4407 13.0319C65.4788 12.5365 66.6466 12.2887 67.9443 12.2887C69.3599 12.2887 70.6221 12.5601 71.731 13.1027C72.8635 13.6454 73.7954 14.306 74.5268 15.0845L73.4651 16.3232C72.7809 15.5918 71.9787 15.0138 71.0586 14.5891C70.1385 14.1644 69.1004 13.9521 67.9443 13.9521C66.4579 13.9521 65.2546 14.3178 64.3345 15.0492C63.4144 15.7805 62.9543 16.7597 62.9543 17.9865C62.9543 18.8595 63.1666 19.5673 63.5913 20.1099C64.016 20.6526 64.5351 21.1008 65.1485 21.4547C65.7855 21.785 66.3871 22.0918 66.9534 22.3749L70.457 23.8966C71.3299 24.2741 72.1321 24.7224 72.8635 25.2415C73.5949 25.7369 74.1847 26.3739 74.633 27.1525C75.1048 27.9311 75.3408 28.9102 75.3408 30.0899C75.3408 31.2931 75.0341 32.3784 74.4206 33.3458C73.8072 34.2895 72.9225 35.0445 71.7664 35.6107C70.6339 36.1534 69.3127 36.4247 67.8027 36.4247ZM91.7064 36V14.306H84.3453V12.7134H100.943V14.306H93.5821V36H91.7064ZM111.926 36V12.7134H118.686C120.243 12.7134 121.599 12.914 122.756 13.315C123.935 13.7161 124.844 14.3767 125.481 15.2969C126.141 16.217 126.472 17.4321 126.472 18.942C126.472 20.3812 126.141 21.5845 125.481 22.5518C124.844 23.4956 123.935 24.2151 122.756 24.7106C121.599 25.2061 120.243 25.4538 118.686 25.4538H113.802V36H111.926ZM124.773 36L118.296 24.9229L119.995 24.2505L126.967 36H124.773ZM113.802 23.8966H118.261C120.29 23.8966 121.835 23.4838 122.897 22.658C123.982 21.8322 124.525 20.5936 124.525 18.942C124.525 17.2197 123.982 16.0165 122.897 15.3323C121.835 14.6245 120.29 14.2706 118.261 14.2706H113.802V23.8966ZM134.712 36L142.852 12.7134H144.798L152.973 36H150.956L146.426 22.4103C145.954 21.0419 145.506 19.7206 145.081 18.4466C144.68 17.149 144.279 15.8041 143.878 14.4121H143.737C143.335 15.8041 142.923 17.149 142.498 18.4466C142.097 19.7206 141.672 21.0419 141.224 22.4103L136.623 36H134.712ZM138.534 28.1788V26.6217H149.045V28.1788H138.534ZM171.527 36.4247C169.616 36.4247 167.918 35.941 166.431 34.9737C164.945 33.9828 163.777 32.579 162.928 30.7623C162.102 28.9456 161.689 26.7986 161.689 24.3213C161.689 22.4574 161.925 20.7941 162.397 19.3313C162.892 17.845 163.588 16.5709 164.485 15.5092C165.381 14.4475 166.443 13.6454 167.67 13.1027C168.897 12.5601 170.253 12.2887 171.74 12.2887C173.108 12.2887 174.311 12.5719 175.349 13.1381C176.388 13.7043 177.225 14.3532 177.862 15.0845L176.765 16.3232C176.152 15.6154 175.42 15.0492 174.571 14.6245C173.745 14.1762 172.801 13.9521 171.74 13.9521C170.088 13.9521 168.661 14.3767 167.457 15.2261C166.254 16.0755 165.322 17.2669 164.662 18.8005C164.001 20.3341 163.671 22.1625 163.671 24.2859C163.671 26.4093 163.989 28.2496 164.626 29.8068C165.263 31.3639 166.172 32.579 167.351 33.4519C168.555 34.3013 169.982 34.726 171.633 34.726C172.813 34.726 173.863 34.49 174.783 34.0182C175.727 33.5227 176.6 32.8149 177.402 31.8948L178.499 33.098C177.603 34.1125 176.6 34.9265 175.491 35.5399C174.382 36.1298 173.061 36.4247 171.527 36.4247ZM194.758 36V14.306H187.396V12.7134H203.994V14.306H196.633V36H194.758Z" fill="white"/>
<a href="https://www.instagram.com/abstractstoreofficial/?igshid=YmMyMTA2M2Y=">
<rect fill="black" fill-opacity="0" x="0.412567" y="0.35498" width="199.163" height="46.29"/>
</a>
</svg>
