<svg width="199" height="33" viewBox="0 0 199 33" fill="none" xmlns="http://www.w3.org/2000/svg">
<path d="M0.169202 33L7.28947 0.2927H17.2578L19.6925 23.9504L32.3712 0.2927H42.5693L35.4949 33H28.7422L34.714 6.9536L20.7491 33H15.2366L12.021 6.90766L7.05978 33H0.169202ZM65.3186 0.2927L70.7851 33H63.6189L62.5164 25.696H50.3431L46.1628 33H38.5372L57.9227 0.2927H65.3186ZM53.1452 20.4132H61.9192L60.1277 8.01015L53.1452 20.4132ZM80.0447 0.2927H93.734C96.0921 0.2927 97.9908 0.445824 99.4302 0.752072C101.329 1.18082 102.799 2.08425 103.84 3.46237C104.881 4.84048 105.402 6.57079 105.402 8.65327C105.402 11.042 104.728 13.0632 103.381 14.717C102.033 16.3401 100.226 17.3354 97.9602 17.7029C100.196 18.6523 101.314 20.4898 101.314 23.2154C101.314 23.981 101.268 25.1294 101.176 26.6607C101.115 28.1613 101.084 29.2944 101.084 30.06C101.084 31.3463 101.237 32.3263 101.543 33H94.423C94.2087 32.3875 94.1015 31.6219 94.1015 30.7031C94.1015 29.9681 94.1474 28.881 94.2393 27.4416C94.3618 26.0022 94.423 24.9304 94.423 24.226C94.423 22.5723 94.0096 21.4851 93.1827 20.9644C92.3559 20.4438 91.0084 20.1835 89.1403 20.1835H82.9387L80.2284 33H73.1541L80.0447 0.2927ZM85.9706 5.94298L84.0412 15.0385H90.794C91.8659 15.0385 92.7846 14.9773 93.5502 14.8548C94.3159 14.7323 95.0815 14.5026 95.8471 14.1657C96.6127 13.8289 97.1946 13.2929 97.5927 12.5579C97.9908 11.8229 98.1899 10.9042 98.1899 9.80171C98.1899 8.23984 97.6846 7.21391 96.674 6.72391C95.694 6.20329 94.3005 5.94298 92.4937 5.94298H85.9706ZM113.472 0.2927H125.875C127.223 0.2927 128.325 0.323325 129.183 0.384574C130.071 0.415198 131.112 0.568322 132.307 0.843945C133.532 1.11957 134.496 1.51769 135.201 2.03831C135.936 2.55894 136.563 3.30924 137.084 4.28924C137.605 5.26923 137.865 6.4636 137.865 7.87234C137.865 9.86295 137.314 11.5626 136.211 12.9714C135.109 14.3801 133.623 15.2682 131.755 15.6357C134.879 16.677 136.441 18.8973 136.441 22.2966C136.441 24.5935 135.752 26.7066 134.374 28.636C133.026 30.5347 131.25 31.775 129.045 32.3569C127.453 32.7856 125.003 33 121.695 33H106.536L113.472 0.2927ZM119.26 5.8511L117.607 13.6145H124.176C125.094 13.6145 125.891 13.5686 126.564 13.4767C127.238 13.3542 127.912 13.1551 128.586 12.8795C129.29 12.5732 129.811 12.0986 130.147 11.4554C130.515 10.8123 130.699 10.0161 130.699 9.06671C130.699 8.42359 130.561 7.88765 130.285 7.4589C130.01 7.03016 129.719 6.7086 129.412 6.49422C129.106 6.27985 128.632 6.12673 127.988 6.03485C127.345 5.94298 126.871 5.89704 126.564 5.89704C126.258 5.86642 125.753 5.8511 125.048 5.8511H119.26ZM116.596 18.4379L114.667 27.3957H121.465C122.598 27.3957 123.533 27.3497 124.268 27.2578C125.003 27.166 125.814 26.9822 126.702 26.7066C127.59 26.4004 128.264 25.8797 128.723 25.1447C129.183 24.4097 129.412 23.4757 129.412 22.3426C129.412 21.6994 129.321 21.1329 129.137 20.6429C128.984 20.1529 128.677 19.7701 128.218 19.4945C127.789 19.2188 127.437 19.0045 127.162 18.8513C126.886 18.6982 126.381 18.591 125.646 18.5298C124.911 18.4685 124.436 18.4379 124.222 18.4379C124.007 18.4379 123.487 18.4379 122.66 18.4379H116.596ZM153.882 0.2927L148.232 26.9363H164.218L162.932 33H139.78L146.716 0.2927H153.882ZM198.038 0.2927L196.844 6.12673H179.066L177.55 13.3389H194.042L192.847 18.9432H176.356L174.61 27.0282H192.755L191.469 33H166.249L173.186 0.2927H198.038Z" fill="white"/>
</svg>
