<svg width="188" height="33" viewBox="0 0 188 33" fill="none" xmlns="http://www.w3.org/2000/svg">
<path d="M25.7924 28.6731L26.2302 29.0233L25.092 32.3502C22.6114 32.2043 20.1162 32.1021 17.6064 32.0438C15.1258 32.0146 12.6306 32 10.1208 32C9.4204 32 8.63244 32 7.75693 32C6.88142 31.9708 6.28315 31.9124 5.96213 31.8249C5.64111 31.6498 5.32009 31.3726 4.99907 30.9932C4.67805 30.5846 4.51754 30.176 4.51754 29.7674V10.9878C4.51754 10.3457 4.51754 9.63071 4.51754 8.84275C4.51754 8.02561 4.50295 7.28143 4.47377 6.6102C4.44458 5.93898 4.40081 5.47204 4.34244 5.20938C4.16734 4.53816 3.84632 4.05663 3.37938 3.76479C2.94162 3.44377 2.43091 3.2249 1.84723 3.10816C1.29274 2.99143 0.752847 2.90387 0.227541 2.84551V1.83867L0.533969 1.53224C2.28499 1.53224 4.12356 1.53224 6.04968 1.53224C7.97581 1.53224 9.88734 1.51765 11.7843 1.48847C13.6812 1.4301 15.4614 1.37173 17.1249 1.31336C18.7884 1.22581 20.233 1.10908 21.4587 0.963159L22.0277 1.18204V3.89612L21.5024 4.37765C20.6561 4.31928 19.6639 4.26092 18.5257 4.20255C17.4167 4.115 16.3223 4.04204 15.2425 3.98367C14.1919 3.9253 13.3018 3.88153 12.5722 3.85235C11.8718 3.79398 11.5216 3.76479 11.5216 3.76479C10.7337 3.76479 10.2813 3.98367 10.1646 4.42142C10.0478 4.85918 9.98948 5.3699 9.98948 5.95357V13.8332C9.98948 14.0374 10.0624 14.2855 10.2084 14.5773C10.3835 14.84 10.6023 14.9713 10.865 14.9713C11.5362 14.9713 12.3971 14.9421 13.4477 14.8838C14.5275 14.7962 15.5927 14.7087 16.6434 14.6211C17.7232 14.5336 18.6278 14.446 19.3574 14.3585C20.087 14.2709 20.4664 14.2271 20.4956 14.2271C20.5248 14.2271 20.5977 14.2709 20.7145 14.3585C20.8604 14.446 20.9771 14.519 21.0647 14.5773V17.1163C19.5471 17.058 17.942 17.0288 16.2494 17.0288C14.5567 16.9996 12.8787 16.985 11.2152 16.985C10.7191 16.985 10.3835 17.1017 10.2084 17.3352C10.0624 17.5687 9.98948 17.8459 9.98948 18.1669C9.98948 19.5969 10.0041 21.0853 10.0333 22.632C10.0624 24.1788 10.1792 25.5066 10.3835 26.6156C10.6169 28.425 11.5946 29.3297 13.3164 29.3297C13.4332 29.3297 13.9001 29.3151 14.7172 29.2859C15.5636 29.2276 16.5996 29.1692 17.8253 29.1108C19.0802 29.0233 20.4081 28.9503 21.8089 28.8919C23.2097 28.8044 24.5375 28.7314 25.7924 28.6731ZM50.3211 28.7168L50.8902 29.1108L49.9709 32.2189C48.9786 32.1605 47.68 32.1167 46.0749 32.0876C44.4989 32.0584 42.7479 32.0292 40.8218 32C38.9249 32 36.9987 32 35.0434 32C33.0881 32 31.2496 32 29.5277 32V31.2558C29.732 31.0223 29.9655 30.7743 30.2281 30.5116C30.4908 30.249 30.6513 30.0155 30.7097 29.8112C30.768 29.5486 30.7972 29.1108 30.7972 28.498C30.8264 27.8559 30.841 27.2868 30.841 26.7907V7.26684C30.841 6.77071 30.8264 6.30377 30.7972 5.86602C30.768 5.42826 30.7097 4.96132 30.6221 4.4652C30.447 3.70643 29.9655 3.22489 29.1775 3.02061C28.4187 2.78714 27.6892 2.65581 26.9887 2.62663V1.61979L27.3389 1.26959H40.2527L40.6029 1.61979V2.80173C39.2021 2.94765 38.1953 3.18112 37.5824 3.50214C36.9987 3.79398 36.6339 4.30469 36.488 5.03428C36.3713 5.73469 36.3129 6.7853 36.3129 8.18612V20.9248C36.3129 21.8295 36.2983 22.7925 36.2692 23.814C36.2692 24.8354 36.2837 25.7985 36.3129 26.7032C36.3421 27.5787 36.4443 28.2937 36.6194 28.8482C36.8236 29.4027 37.1155 29.6799 37.4949 29.6799C38.633 29.6799 39.8587 29.6361 41.172 29.5486C42.4853 29.461 43.7694 29.3735 45.0243 29.2859C46.2792 29.1692 47.3735 29.0524 48.3074 28.9357C49.2705 28.819 49.9417 28.746 50.3211 28.7168ZM70.216 8.01102L69.4719 7.79214C69.3551 6.82908 69.0487 5.90979 68.5526 5.03428C68.0856 4.12959 67.4436 3.4 66.6264 2.84551C65.8093 2.29102 64.8025 2.01377 63.6059 2.01377C62.2051 2.01377 61.0961 2.45153 60.279 3.32704C59.4619 4.20255 59.0533 5.23857 59.0533 6.4351C59.0533 7.69 59.4035 8.76979 60.1039 9.67449C60.8043 10.55 61.6798 11.3234 62.7304 11.9946C63.781 12.6366 64.8462 13.2349 65.926 13.7894C67.6479 14.6649 69.1216 15.5258 70.3474 16.3721C71.6023 17.1893 72.5653 18.094 73.2365 19.0862C73.937 20.0785 74.2872 21.275 74.2872 22.6758C74.2872 24.1642 73.8786 25.5212 73.0614 26.7469C72.2735 27.9727 71.2083 29.0233 69.8658 29.8988C68.5526 30.7743 67.108 31.4455 65.5321 31.9124C63.9853 32.3794 62.4386 32.6129 60.8919 32.6129C59.1116 32.6129 57.4482 32.2335 55.9014 31.4747C54.3547 30.7159 53.0706 29.6215 52.0492 28.1915L56.2954 23.42L57.1272 23.7264C57.1272 24.8062 57.3752 25.8714 57.8713 26.922C58.3675 27.9435 59.0825 28.7898 60.0163 29.461C60.9794 30.1322 62.103 30.4679 63.3871 30.4679C64.4377 30.4679 65.3861 30.2198 66.2325 29.7237C67.0788 29.1984 67.75 28.5271 68.2461 27.71C68.7423 26.8637 68.9903 25.9882 68.9903 25.0835C68.9903 24.2371 68.7569 23.4784 68.2899 22.8071C67.823 22.1067 67.2685 21.4647 66.6264 20.881C65.9844 20.2973 65.1527 19.7283 64.1312 19.1738C63.1098 18.6193 62.03 18.0356 60.8919 17.4228C59.7537 16.7807 58.6739 16.0803 57.6525 15.3215C56.631 14.5336 55.7993 13.6435 55.1573 12.6512C54.5152 11.659 54.1942 10.5208 54.1942 9.23673C54.1942 7.66081 54.5152 6.30377 55.1573 5.16561C55.7993 4.02745 56.6602 3.10816 57.74 2.40775C58.8198 1.70734 60.0309 1.19663 61.3734 0.875609C62.745 0.525405 64.1458 0.350302 65.5758 0.350302C67.823 0.350302 69.6761 0.685914 71.1353 1.35714C72.6237 1.99918 73.7035 3.13734 74.3747 4.77163L70.216 8.01102ZM99.3975 28.7168L99.9666 29.1108L99.0473 32.2189C98.0551 32.1605 96.7564 32.1167 95.1513 32.0876C93.5754 32.0584 91.8244 32.0292 89.8983 32C88.0013 32 86.0752 32 84.1199 32C82.1646 32 80.326 32 78.6042 32V31.2558C78.8085 31.0223 79.0419 30.7743 79.3046 30.5116C79.5672 30.249 79.7277 30.0155 79.7861 29.8112C79.8445 29.5486 79.8737 29.1108 79.8737 28.498C79.9028 27.8559 79.9174 27.2868 79.9174 26.7907V7.26684C79.9174 6.77071 79.9028 6.30377 79.8737 5.86602C79.8445 5.42826 79.7861 4.96132 79.6986 4.4652C79.5235 3.70643 79.0419 3.22489 78.254 3.02061C77.4952 2.78714 76.7656 2.65581 76.0652 2.62663V1.61979L76.4154 1.26959H89.3292L89.6794 1.61979V2.80173C88.2786 2.94765 87.2717 3.18112 86.6589 3.50214C86.0752 3.79398 85.7104 4.30469 85.5645 5.03428C85.4477 5.73469 85.3894 6.7853 85.3894 8.18612V20.9248C85.3894 21.8295 85.3748 22.7925 85.3456 23.814C85.3456 24.8354 85.3602 25.7985 85.3894 26.7032C85.4186 27.5787 85.5207 28.2937 85.6958 28.8482C85.9001 29.4027 86.1919 29.6799 86.5713 29.6799C87.7095 29.6799 88.9352 29.6361 90.2485 29.5486C91.5617 29.461 92.8458 29.3735 94.1007 29.2859C95.3556 29.1692 96.45 29.0524 97.3839 28.9357C98.3469 28.819 99.0182 28.746 99.3975 28.7168ZM102.176 17.5541C102.176 15.1902 102.585 12.8409 103.402 10.5062C104.248 8.14234 105.605 6.11408 107.473 4.42142C109.166 2.87469 111.092 1.83867 113.251 1.31336C115.44 0.758874 117.833 0.48163 120.431 0.48163C122.298 0.48163 124.122 0.744283 125.903 1.26959C127.712 1.76571 129.288 2.61204 130.63 3.80857C132.235 5.26775 133.359 6.975 134.001 8.9303C134.672 10.8856 135.008 12.8701 135.008 14.8838C135.008 18.0648 134.497 20.7935 133.476 23.0698C132.454 25.3169 131.054 27.1555 129.273 28.5855C127.493 29.9863 125.465 31.0223 123.189 31.6936C120.941 32.3356 118.563 32.6566 116.053 32.6566C114.302 32.6566 112.595 32.4086 110.931 31.9124C109.268 31.3871 107.809 30.5554 106.554 29.4172C104.949 27.9289 103.811 26.1195 103.139 23.9891C102.497 21.8295 102.176 19.6845 102.176 17.5541ZM108.217 15.9782C108.217 17.4665 108.392 19.0716 108.743 20.7935C109.122 22.4861 109.72 24.0766 110.537 25.565C111.384 27.0534 112.478 28.2791 113.821 29.2421C115.192 30.176 116.885 30.643 118.899 30.643C120.825 30.643 122.415 30.2636 123.67 29.5048C124.954 28.746 125.961 27.7392 126.691 26.4843C127.449 25.2294 127.975 23.8432 128.266 22.3256C128.587 20.8081 128.748 19.2905 128.748 17.773C128.748 16.5472 128.646 15.234 128.442 13.8332C128.266 12.4323 127.96 11.0461 127.522 9.67449C127.085 8.30285 126.472 7.06255 125.684 5.95357C124.925 4.81541 123.962 3.91071 122.795 3.23949C121.627 2.56826 120.226 2.23265 118.592 2.23265C116.812 2.23265 115.265 2.65581 113.952 3.50214C112.668 4.34847 111.603 5.45745 110.756 6.82908C109.91 8.17153 109.268 9.6453 108.83 11.2504C108.422 12.8555 108.217 14.4314 108.217 15.9782ZM147.487 10.2873V4.4652C147.487 4.14418 147.385 3.9253 147.181 3.80857C146.977 3.69183 146.714 3.64806 146.393 3.67724L137.594 4.115L137.2 3.72102V1.18204L137.55 0.831834C139.652 0.861018 141.753 0.933977 143.854 1.05071C145.955 1.16745 148.056 1.22581 150.158 1.22581C152.346 1.22581 154.535 1.16745 156.724 1.05071C158.913 0.933977 161.102 0.831834 163.29 0.744282L163.728 1.18204V3.37081L163.247 3.76479C163.13 3.76479 162.721 3.76479 162.021 3.76479C161.35 3.73561 160.532 3.70643 159.569 3.67724C158.606 3.64806 157.629 3.63347 156.636 3.63347C155.644 3.60428 154.769 3.58969 154.01 3.58969C153.689 3.58969 153.455 3.63347 153.309 3.72102C153.164 3.77938 153.091 3.95449 153.091 4.24632V10.2873C153.091 13.6727 153.164 17.0725 153.309 20.487C153.455 23.9015 153.631 27.3014 153.835 30.6867L147.531 32.4815L147.137 31.9562C147.254 28.3374 147.341 24.7333 147.4 21.1437C147.458 17.5249 147.487 13.9061 147.487 10.2873ZM182.989 8.01102L182.245 7.79214C182.128 6.82908 181.822 5.90979 181.326 5.03428C180.859 4.12959 180.217 3.4 179.4 2.84551C178.583 2.29102 177.576 2.01377 176.379 2.01377C174.978 2.01377 173.869 2.45153 173.052 3.32704C172.235 4.20255 171.827 5.23857 171.827 6.4351C171.827 7.69 172.177 8.76979 172.877 9.67449C173.578 10.55 174.453 11.3234 175.504 11.9946C176.554 12.6366 177.619 13.2349 178.699 13.7894C180.421 14.6649 181.895 15.5258 183.121 16.3721C184.376 17.1893 185.339 18.094 186.01 19.0862C186.71 20.0785 187.06 21.275 187.06 22.6758C187.06 24.1642 186.652 25.5212 185.835 26.7469C185.047 27.9727 183.982 29.0233 182.639 29.8988C181.326 30.7743 179.881 31.4455 178.305 31.9124C176.759 32.3794 175.212 32.6129 173.665 32.6129C171.885 32.6129 170.221 32.2335 168.675 31.4747C167.128 30.7159 165.844 29.6215 164.822 28.1915L169.069 23.42L169.9 23.7264C169.9 24.8062 170.148 25.8714 170.645 26.922C171.141 27.9435 171.856 28.7898 172.79 29.461C173.753 30.1322 174.876 30.4679 176.16 30.4679C177.211 30.4679 178.159 30.2198 179.006 29.7237C179.852 29.1984 180.523 28.5271 181.019 27.71C181.516 26.8637 181.764 25.9882 181.764 25.0835C181.764 24.2371 181.53 23.4784 181.063 22.8071C180.596 22.1067 180.042 21.4647 179.4 20.881C178.758 20.2973 177.926 19.7283 176.904 19.1738C175.883 18.6193 174.803 18.0356 173.665 17.4228C172.527 16.7807 171.447 16.0803 170.426 15.3215C169.404 14.5336 168.573 13.6435 167.931 12.6512C167.288 11.659 166.967 10.5208 166.967 9.23673C166.967 7.66081 167.288 6.30377 167.931 5.16561C168.573 4.02745 169.433 3.10816 170.513 2.40775C171.593 1.70734 172.804 1.19663 174.147 0.875609C175.518 0.525405 176.919 0.350302 178.349 0.350302C180.596 0.350302 182.449 0.685914 183.909 1.35714C185.397 1.99918 186.477 3.13734 187.148 4.77163L182.989 8.01102Z" fill="white"/>
</svg>
