<svg width="74" height="68" viewBox="0 0 74 68" fill="none" xmlns="http://www.w3.org/2000/svg">
<path opacity="0.8" fill-rule="evenodd" clip-rule="evenodd" d="M42.4961 56.0207L24.6207 64.2658C23.9176 64.5902 23.1284 64.0266 23.2071 63.2563L25.2677 43.0648L12.1047 27.9604C11.6056 27.3877 11.9022 26.4895 12.6443 26.3267L31.8491 22.1131L41.6226 4.56808C42.0039 3.88364 42.9884 3.8836 43.3697 4.568L53.1431 22.1088L72.3481 26.3224C73.0901 26.4852 73.3868 27.3833 72.8878 27.9561L59.7245 43.0648L61.7851 63.2563C61.8638 64.0266 61.0746 64.5902 60.3715 64.2658L42.4961 56.0207Z" fill="white"/>
<path fill-rule="evenodd" clip-rule="evenodd" d="M16.6208 67.8038L35.9979 58.999L55.375 67.8038C55.7257 67.9635 56.1122 68.0274 56.4955 67.9893C56.8787 67.9511 57.2451 67.8121 57.5577 67.5865C57.8702 67.3608 58.1178 67.0563 58.2753 66.704C58.4329 66.3516 58.4949 65.9637 58.4551 65.5796L56.2238 44.0392L70.4471 27.9475C70.7 27.6608 70.8737 27.3127 70.9509 26.9378C71.0281 26.5629 71.0061 26.1743 70.8871 25.8106C70.7681 25.4468 70.5563 25.1207 70.2726 24.8645C69.989 24.6083 69.6434 24.431 69.2702 24.3502L48.5106 19.8622L37.9011 1.112C37.7103 0.774424 37.4336 0.493635 37.0993 0.298281C36.7649 0.102927 36.3849 0 35.9979 0C35.611 0 35.2309 0.102927 34.8966 0.298281C34.5623 0.493635 34.2856 0.774424 34.0948 1.112L23.4853 19.8622L2.72564 24.3502C2.35212 24.4304 2.00605 24.6072 1.72187 24.8632C1.43769 25.1191 1.2253 25.4452 1.10583 25.8091C0.986364 26.1729 0.963988 26.5617 1.04093 26.9369C1.11787 27.3121 1.29144 27.6605 1.54437 27.9475L15.7764 44.0348L13.5451 65.5796C13.5057 65.9632 13.5679 66.3503 13.7252 66.7022C13.8826 67.054 14.1297 67.358 14.4416 67.5835C14.7535 67.8091 15.1191 67.9482 15.5017 67.9869C15.8843 68.0255 16.2703 67.9624 16.6208 67.8038ZM35.0967 54.5988L18.2877 62.2323L20.2259 43.5303C20.2577 43.2274 20.2263 42.9212 20.1337 42.6312C20.041 42.3412 19.8891 42.0737 19.6877 41.8457L7.30632 27.8466L25.3665 23.9422C25.6683 23.8773 25.9529 23.7492 26.2017 23.5662C26.4505 23.3833 26.6579 23.1496 26.8103 22.8805L35.9979 6.63968L45.1855 22.8805C45.3379 23.1496 45.5453 23.3833 45.7942 23.5662C46.043 23.7492 46.3276 23.8773 46.6293 23.9422L64.6895 27.8466L52.3081 41.8457C52.1067 42.0737 51.9549 42.3412 51.8622 42.6312C51.7696 42.9212 51.7382 43.2274 51.77 43.5303L53.7082 62.2323L36.8992 54.5988C36.616 54.4704 36.3087 54.404 35.9979 54.404C35.6871 54.404 35.3799 54.4704 35.0967 54.5988Z" fill="white"/>
</svg>
