<svg width="70" height="70" viewBox="0 0 70 70" fill="none" xmlns="http://www.w3.org/2000/svg">
<path opacity="0.8" fill-rule="evenodd" clip-rule="evenodd" d="M27.453 12.23C27.8047 11.8784 28.2817 11.6808 28.7791 11.6808C29.2764 11.6808 29.7534 11.8784 30.1052 12.23L41.4716 23.5964C41.6463 23.7706 41.7848 23.9776 41.8794 24.2055C41.974 24.4334 42.0226 24.6776 42.0226 24.9244C42.0226 25.1711 41.974 25.4154 41.8794 25.6432C41.7848 25.8711 41.6463 26.0781 41.4716 26.2523L25.5586 42.1691C24.7045 43.0232 24.2246 44.1816 24.2246 45.3895C24.2246 46.5975 24.7045 47.7559 25.5586 48.61C26.4127 49.4641 27.5712 49.944 28.7791 49.944C29.987 49.944 31.1454 49.4641 31.9996 48.61L47.9163 32.6933C48.268 32.3417 48.745 32.1441 49.2424 32.1441C49.7397 32.1441 50.2167 32.3417 50.5685 32.6933L61.9349 44.0597C62.1096 44.2339 62.2481 44.4409 62.3427 44.6688C62.4373 44.8967 62.4859 45.1409 62.4859 45.3877C62.4859 45.6344 62.4373 45.8787 62.3427 46.1065C62.2481 46.3344 62.1096 46.5414 61.9349 46.7156L46.0182 62.6286C41.4194 67.0702 35.2601 69.5279 28.8668 69.4724C22.4736 69.4168 16.3579 66.8525 11.837 62.3316C7.31617 57.8107 4.75179 51.695 4.69623 45.3018C4.64068 38.9085 7.09839 32.7492 11.54 28.1505L27.4568 12.2337L27.453 12.23ZM50.9699 26.4174C50.5124 26.2344 50.0955 25.9631 49.743 25.619C49.3904 25.2749 49.1091 24.8647 48.915 24.4118C48.721 23.959 48.6181 23.4723 48.6121 22.9797C48.6062 22.4871 48.6973 21.9981 48.8804 21.5407L53.9446 8.88008L59.7929 10.8308L62.8615 4.43105C63.2922 3.53415 64.0617 2.84511 65.0005 2.51551C65.4654 2.35232 65.9578 2.28228 66.4498 2.3094C66.9417 2.33652 67.4235 2.46026 67.8676 2.67357C68.3117 2.88688 68.7094 3.18557 69.0381 3.55259C69.3667 3.91961 69.6199 4.34778 69.7831 4.81264C69.9463 5.27749 70.0163 5.76995 69.9892 6.26187C69.9621 6.7538 69.8383 7.23557 69.625 7.67967L63.6942 20.0364L58.2849 18.2358L55.8465 24.3279C55.6636 24.7853 55.3923 25.2022 55.0481 25.5548C54.704 25.9074 54.2938 26.1887 53.841 26.3827C53.3881 26.5768 52.9015 26.6797 52.4089 26.6856C51.9162 26.6916 51.4273 26.6004 50.9699 26.4174Z" fill="white"/>
<path fill-rule="evenodd" clip-rule="evenodd" d="M23.704 8.47787C24.0557 8.12624 24.5327 7.92871 25.0301 7.92871C25.5274 7.92871 26.0044 8.12624 26.3562 8.47787L37.7226 19.8443C37.8972 20.0185 38.0358 20.2255 38.1304 20.4534C38.2249 20.6812 38.2736 20.9255 38.2736 21.1722C38.2736 21.419 38.2249 21.6632 38.1304 21.8911C38.0358 22.119 37.8972 22.326 37.7226 22.5002L21.8096 38.4169C21.3867 38.8399 21.0512 39.3419 20.8223 39.8945C20.5934 40.4471 20.4756 41.0393 20.4756 41.6374C20.4756 42.8453 20.9555 44.0038 21.8096 44.8579C22.6637 45.712 23.8222 46.1919 25.0301 46.1919C26.238 46.1919 27.3964 45.712 28.2506 44.8579L44.1673 28.9374C44.519 28.5858 44.996 28.3883 45.4934 28.3883C45.9907 28.3883 46.4677 28.5858 46.8195 28.9374L58.1859 40.3038C58.3605 40.4781 58.4991 40.685 58.5937 40.9129C58.6882 41.1408 58.7369 41.3851 58.7369 41.6318C58.7369 41.8785 58.6882 42.1228 58.5937 42.3507C58.4991 42.5785 58.3605 42.7855 58.1859 42.9598L42.2691 58.8727C37.6666 63.2929 31.5147 65.7326 25.1337 65.6682C18.7527 65.6039 12.6513 63.0407 8.13877 58.5287C3.62626 54.0167 1.06238 47.9155 0.997361 41.5345C0.932345 35.1536 3.37138 29.0014 7.79101 24.3984L23.7077 8.48163L23.704 8.47787ZM25.0282 12.458L10.4394 27.0505C8.48223 28.9571 6.92322 31.2334 5.85289 33.7473C4.78256 36.2613 4.22222 38.9628 4.2044 41.695C4.18659 44.4273 4.71164 47.1359 5.7491 49.6636C6.78656 52.1912 8.31575 54.4877 10.2479 56.4196C12.1801 58.3515 14.4767 59.8804 17.0045 60.9176C19.5324 61.9547 22.241 62.4794 24.9733 62.4612C27.7055 62.4431 30.4069 61.8824 32.9208 60.8117C35.4346 59.7411 37.7107 58.1818 39.617 56.2243L54.2095 41.6355L45.4915 32.9213L30.9027 47.5101C30.1334 48.2897 29.2174 48.9094 28.2076 49.3336C27.1977 49.7578 26.114 49.9781 25.0187 49.9817C23.9234 49.9853 22.8382 49.7723 21.8255 49.3548C20.8129 48.9373 19.8929 48.3236 19.1184 47.5491C18.3439 46.7746 17.7302 45.8546 17.3127 44.842C16.8952 43.8293 16.6822 42.7441 16.6858 41.6488C16.6894 40.5535 16.9097 39.4698 17.3339 38.4599C17.7581 37.4501 18.3778 36.5341 19.1574 35.7648L33.7462 21.1722L25.0282 12.458Z" fill="white"/>
<path fill-rule="evenodd" clip-rule="evenodd" d="M25.0266 32.5392L13.6602 21.1728L16.3123 18.5206L27.6787 29.887L25.0266 32.5429V32.5392ZM45.4899 53.0062L34.1235 41.6398L36.7756 38.9839L48.142 50.3503L45.4899 53.0062ZM44.1657 20.9252C43.9368 20.8339 43.7281 20.6984 43.5517 20.5264C43.3752 20.3544 43.2343 20.1493 43.1371 19.9229C43.0399 19.6964 42.9883 19.4531 42.9852 19.2067C42.9821 18.9603 43.0276 18.7157 43.1191 18.4868L47.5268 7.4693L53.2663 9.38246L57.0551 1.49349C57.2869 1.07479 57.67 0.760549 58.126 0.615094C58.5819 0.46964 59.0762 0.503977 59.5077 0.711076C59.9391 0.918176 60.2751 1.28237 60.4468 1.7291C60.6185 2.17582 60.613 2.67128 60.4313 3.11405L55.217 13.9853L49.6988 12.1472L46.604 19.8823C46.4189 20.3439 46.058 20.713 45.6008 20.9086C45.1435 21.1042 44.6273 21.1101 44.1657 20.9252Z" fill="white"/>
</svg>
