<svg width="63" height="70" viewBox="0 0 63 70" fill="none" xmlns="http://www.w3.org/2000/svg">
<g opacity="0.8">
<path opacity="0.8" d="M34.9864 67.8474C49.4975 67.8474 60.9927 56.0882 60.9927 41.5771C60.9927 41.5771 60.9927 27.914 51.3534 16.0187C51.3132 15.9697 51.262 15.9308 51.2039 15.9055C51.1457 15.8801 51.0824 15.8689 51.0191 15.8728C50.9558 15.8767 50.8944 15.8956 50.8398 15.9279C50.7853 15.9603 50.7392 16.0051 50.7054 16.0587L45.4337 24.8462C45.3941 24.911 45.337 24.9633 45.269 24.9971C45.2009 25.0309 45.1248 25.0448 45.0492 25.0373C44.9736 25.0298 44.9017 25.0011 44.8416 24.9546C44.7816 24.908 44.7359 24.8455 44.7098 24.7742C44.0658 22.9663 42.4419 18.5266 40.994 15.5828C39.3501 12.239 35.0384 7.67128 33.5265 6.12338C33.4761 6.0717 33.4125 6.03479 33.3427 6.01664C33.2728 5.99848 33.1993 5.99977 33.1301 6.02036C33.0609 6.04095 32.9987 6.08006 32.9501 6.13347C32.9015 6.18687 32.8685 6.25254 32.8546 6.32336C32.4106 8.62322 30.9347 15.6948 28.9948 19.5825C27.0869 23.3943 24.3151 27.622 23.3432 29.0659C23.3061 29.1212 23.2556 29.1663 23.1965 29.197C23.1373 29.2276 23.0714 29.2428 23.0048 29.2412C22.9382 29.2396 22.8731 29.2213 22.8155 29.1878C22.7579 29.1544 22.7096 29.1069 22.6752 29.0499L17.3036 20.0905C17.2698 20.0344 17.2227 19.9876 17.1664 19.9542C17.1101 19.9208 17.0465 19.9019 16.9811 19.8991C16.9157 19.8963 16.8507 19.9098 16.7918 19.9383C16.7329 19.9668 16.682 20.0095 16.6436 20.0625C10.916 27.974 8.99609 37.6573 8.99609 41.5771C8.99609 56.0842 20.4754 67.8474 34.9864 67.8474Z" fill="white"/>
<path opacity="0.8" fill-rule="evenodd" clip-rule="evenodd" d="M30.8906 5.93955C30.9739 5.51013 31.1732 5.1117 31.4668 4.78749C31.7605 4.46327 32.1373 4.22564 32.5564 4.10036C32.9755 3.97508 33.4209 3.96693 33.8443 4.07681C34.2677 4.18668 34.653 4.41037 34.9583 4.72363C35.7342 5.51558 37.2261 7.08348 38.742 8.89136C40.2299 10.6632 41.8538 12.7951 42.7898 14.695C43.7017 16.5509 44.6697 18.9507 45.4336 20.9546L48.9934 15.035C49.1917 14.7044 49.4667 14.4264 49.7952 14.2246C50.1237 14.0228 50.4959 13.9031 50.8804 13.8756C51.265 13.8481 51.6505 13.9137 52.0043 14.0668C52.3581 14.2199 52.6699 14.4559 52.9131 14.755C57.9648 20.9946 60.4806 27.6782 61.7326 32.7818C62.3605 35.3377 62.6765 37.5095 62.8365 39.0534C62.9169 39.8246 62.9703 40.5984 62.9965 41.3733V41.5773H60.9926H62.9925C62.9925 57.1642 50.6293 69.8554 34.9863 69.8554C19.3473 69.8554 6.99609 57.1682 6.99609 41.5773C6.99609 37.2855 9.02396 27.1782 15.0236 18.8907C15.256 18.5705 15.5642 18.3128 15.9205 18.1407C16.2769 17.9686 16.6703 17.8874 17.0656 17.9044C17.461 17.9215 17.846 18.0362 18.1862 18.2383C18.5264 18.4404 18.8113 18.7236 19.0153 19.0627L23.0751 25.8183C24.307 23.8904 25.9549 21.1826 27.2068 18.6827C29.0067 15.083 30.4346 8.2954 30.8906 5.94355V5.93955Z" fill="white"/>
</g>
<path fill-rule="evenodd" clip-rule="evenodd" d="M41.3556 49.6728C41.5372 46.2152 40.7418 42.7763 39.0604 39.7496C37.3791 36.7229 34.8797 34.2306 31.8482 32.5579C31.3098 32.2464 30.6715 32.1562 30.0679 32.3062C29.4643 32.4561 28.9424 32.8346 28.6124 33.3618L24.7567 39.5334L21.5489 35.6537C21.3726 35.441 21.1543 35.2671 20.9075 35.1431C20.6607 35.019 20.3909 34.9473 20.1151 34.9327C19.8393 34.918 19.5635 34.9607 19.3049 35.0579C19.0464 35.1551 18.8108 35.3049 18.6131 35.4977C16.7226 37.3234 15.2462 39.5337 14.2836 41.9792C13.321 44.4247 12.8947 47.0483 13.0334 49.6728C13.0334 53.428 14.5252 57.0294 17.1805 59.6848C19.8359 62.3401 23.4373 63.8319 27.1925 63.8319C30.9477 63.8319 34.5492 62.3401 37.2045 59.6848C39.8598 57.0294 41.3516 53.428 41.3516 49.6728H41.3556ZM19.945 39.9934C19.8607 40.1015 19.7781 40.2108 19.697 40.3214C17.8157 42.9488 16.8732 46.1327 17.0212 49.3608C17.029 49.4392 17.033 49.518 17.0332 49.5968C17.0332 52.2912 18.1035 54.8753 20.0088 56.7805C21.914 58.6858 24.4981 59.7561 27.1925 59.7561C29.8869 59.7561 32.471 58.6858 34.3762 56.7805C36.2815 54.8753 37.3519 52.2912 37.3519 49.5968L37.3639 49.3648C37.3919 49.1048 38.0158 41.9533 31.4722 37.0896C31.3651 37.0098 31.2571 36.9311 31.1483 36.8536L26.9725 43.5332C26.7709 43.8553 26.4956 44.125 26.1694 44.3199C25.8432 44.5149 25.4753 44.6296 25.0961 44.6546C24.7169 44.6796 24.3372 44.6141 23.9882 44.4637C23.6392 44.3132 23.3309 44.082 23.0888 43.7891L19.945 39.9894V39.9934Z" fill="white"/>
<path fill-rule="evenodd" clip-rule="evenodd" d="M24.8906 1.93955C24.9739 1.51013 25.1732 1.1117 25.4668 0.787487C25.7605 0.463271 26.1373 0.225639 26.5564 0.10036C26.9755 -0.0249202 27.4209 -0.0330663 27.8443 0.0768049C28.2677 0.186676 28.653 0.410371 28.9583 0.723632C29.7342 1.51558 31.2261 3.08348 32.742 4.89136C34.2299 6.66325 35.8538 8.79511 36.7898 10.695C37.7017 12.5509 38.6697 14.9507 39.4336 16.9546L42.9894 11.035C43.1877 10.7044 43.4627 10.4264 43.7912 10.2246C44.1197 10.0228 44.4919 9.90307 44.8764 9.87561C45.261 9.84814 45.6465 9.91372 46.0003 10.0668C46.3541 10.2199 46.6659 10.4559 46.9091 10.755C51.9608 16.9946 54.4766 23.6782 55.7286 28.7818C56.3565 31.3377 56.6725 33.5095 56.8325 35.0534C56.9129 35.8246 56.9663 36.5984 56.9925 37.3733V37.5773C56.9925 53.1642 44.6293 65.8554 28.9863 65.8554C13.3473 65.8554 0.996094 53.1682 0.996094 37.5773C0.996094 33.2855 3.02396 23.1782 9.02358 14.8907C9.25603 14.5705 9.56419 14.3128 9.92053 14.1407C10.2769 13.9686 10.6703 13.8874 11.0656 13.9044C11.461 13.9215 11.846 14.0362 12.1862 14.2383C12.5264 14.4404 12.8113 14.7236 13.0153 15.0627L17.0751 21.8183C18.307 19.8904 19.9549 17.1826 21.2068 14.6827C23.0067 11.083 24.4346 4.2954 24.8906 1.94355V1.93955ZM28.1823 5.73931C27.4584 8.9391 26.2625 13.5068 24.7826 16.4746C22.8147 20.4064 19.9789 24.7261 19.0029 26.178C18.7778 26.512 18.4721 26.7839 18.1141 26.9685C17.756 27.1531 17.3572 27.2444 16.9545 27.234C16.5519 27.2237 16.1583 27.1119 15.8102 26.9092C15.4622 26.7064 15.1708 26.4192 14.9632 26.074L10.8835 19.2864C6.49974 26.378 4.99584 34.3495 4.99584 37.5773C4.99584 51.0084 15.6112 61.8477 28.9863 61.8477C42.3654 61.8477 52.9927 51.0084 52.9927 37.5773V37.4653C52.9698 36.796 52.9245 36.1276 52.8567 35.4614C52.651 33.5326 52.3129 31.6202 51.8448 29.7378C50.5774 24.4882 48.3243 19.5273 45.2052 15.1187L41.1495 21.8703C40.9148 22.2603 40.5742 22.5756 40.1672 22.7796C39.7603 22.9836 39.3039 23.0679 38.8509 23.0226C38.398 22.9774 37.9672 22.8045 37.6087 22.524C37.2502 22.2435 36.9787 21.867 36.8258 21.4383C36.1778 19.6224 34.5899 15.2867 33.198 12.4629C32.4901 11.019 31.1341 9.19509 29.6782 7.4632C29.1894 6.88144 28.6907 6.30806 28.1823 5.74331V5.73931Z" fill="white"/>
</svg>
