<svg width="79" height="58" viewBox="0 0 79 58" fill="none" xmlns="http://www.w3.org/2000/svg">
<path opacity="0.8" fill-rule="evenodd" clip-rule="evenodd" d="M49.9537 4.14258H45.8109C42.1367 4.14307 38.5667 5.36399 35.6618 7.61359C32.7568 9.86319 30.6813 13.014 29.7614 16.5712H29.2394C24.8444 16.5712 20.6294 18.3171 17.5216 21.4248C14.4139 24.5326 12.668 28.7476 12.668 33.1426C12.668 37.5376 14.4139 41.7527 17.5216 44.8604C20.6294 47.9682 24.8444 49.7141 29.2394 49.7141H62.3823C66.457 49.72 70.3911 48.2245 73.4328 45.5132C76.4746 42.802 78.4108 39.0651 78.8716 35.0166C79.3324 30.968 78.2854 26.8916 75.9307 23.5662C73.5759 20.2408 70.0786 17.8995 66.1068 16.9896C65.2629 13.3376 63.2065 10.0793 60.273 7.74622C57.3395 5.4131 53.7019 4.14282 49.9537 4.14258Z" fill="white"/>
<path fill-rule="evenodd" clip-rule="evenodd" d="M37.528 0H33.3851C29.7109 0.000488641 26.141 1.22142 23.236 3.47101C20.331 5.72061 18.2556 8.87143 17.3356 12.4286H16.8136C12.4186 12.4286 8.2036 14.1745 5.09585 17.2823C1.9881 20.39 0.242188 24.605 0.242188 29C0.242188 33.3951 1.9881 37.6101 5.09585 40.7178C8.2036 43.8256 12.4186 45.5715 16.8136 45.5715H49.9565C54.0312 45.5774 57.9653 44.0819 61.007 41.3707C64.0488 38.6594 65.985 34.9225 66.4458 30.874C66.9066 26.8254 65.8596 22.749 63.5049 19.4236C61.1502 16.0982 57.6528 13.7569 53.681 12.847C52.8371 9.19504 50.7807 5.93677 47.8472 3.60364C44.9137 1.27052 41.2762 0.000240445 37.528 0ZM20.5464 16.5715L21.3459 13.4643C22.0363 10.7963 23.5933 8.4331 25.7723 6.74592C27.9514 5.05874 30.6292 4.14313 33.3851 4.14286H37.528C43.3487 4.14286 48.3574 8.18215 49.6417 13.775L50.2217 16.3022L52.7488 16.8863C55.7195 17.5771 58.3326 19.3358 60.091 21.8277C61.8495 24.3197 62.6306 27.371 62.2858 30.4014C61.941 33.4317 60.4944 36.2296 58.2211 38.2629C55.9478 40.2961 53.0064 41.4228 49.9565 41.4286H16.8136C13.5174 41.4286 10.3561 40.1192 8.0253 37.7884C5.69449 35.4576 4.38505 32.2963 4.38505 29C4.38505 25.7038 5.69449 22.5425 8.0253 20.2117C10.3561 17.8809 13.5174 16.5715 16.8136 16.5715H20.5464Z" fill="white"/>
<path d="M37.5296 55.929C37.5296 56.4784 37.3113 57.0053 36.9229 57.3938C36.5344 57.7822 36.0075 58.0005 35.4582 58.0005C34.9088 58.0005 34.3819 57.7822 33.9934 57.3938C33.605 57.0053 33.3867 56.4784 33.3867 55.929V24.8576C33.3867 24.3082 33.605 23.7813 33.9934 23.3928C34.3819 23.0044 34.9088 22.7861 35.4582 22.7861C36.0075 22.7861 36.5344 23.0044 36.9229 23.3928C37.3113 23.7813 37.5296 24.3082 37.5296 24.8576V55.929Z" fill="white"/>
<path d="M26.3932 34.7585C25.9622 35.0712 25.4273 35.2059 24.8997 35.1346C24.372 35.0633 23.892 34.7916 23.5594 34.3758C23.2268 33.96 23.067 33.4321 23.1133 32.9017C23.1596 32.3712 23.4084 31.879 23.8081 31.5271L34.1652 23.2414C34.5962 22.9287 35.1311 22.7941 35.6587 22.8653C36.1864 22.9366 36.6664 23.2083 36.999 23.6241C37.3316 24.0399 37.4914 24.5678 37.4451 25.0982C37.3988 25.6287 37.15 26.1209 36.7504 26.4728L26.3932 34.7585Z" fill="white"/>
<path d="M47.1058 31.5271C47.5055 31.879 47.7543 32.3712 47.8006 32.9017C47.8469 33.4321 47.6871 33.96 47.3545 34.3758C47.0219 34.7916 46.5419 35.0633 46.0142 35.1346C45.4865 35.2059 44.9517 35.0712 44.5207 34.7585L34.1635 26.4728C33.7639 26.1209 33.5151 25.6287 33.4688 25.0982C33.4225 24.5678 33.5822 24.0399 33.9149 23.6241C34.2475 23.2083 34.7275 22.9366 35.2551 22.8653C35.7828 22.7941 36.3177 22.9287 36.7487 23.2414L47.1058 31.5271Z" fill="white"/>
</svg>
