<svg width="56" height="78" viewBox="0 0 56 78" fill="none" xmlns="http://www.w3.org/2000/svg">
<path d="M36.4644 33.3163H53.4962C53.9528 33.3163 54.3984 33.4562 54.773 33.7171C55.1476 33.9781 55.4333 34.3477 55.5914 34.7759C55.7496 35.2042 55.7727 35.6707 55.6577 36.1126C55.5426 36.5544 55.2949 36.9503 54.9479 37.2471L32.8016 56.1907L10.3605 77.3766C8.61845 79.0204 5.86244 77.1399 6.7558 74.9199L19.8792 42.2499H8.82838C8.45861 42.2502 8.09454 42.1587 7.76885 41.9836C7.44316 41.8085 7.16604 41.5553 6.96236 41.2467C6.75868 40.9381 6.63482 40.5837 6.60188 40.2154C6.56895 39.8471 6.62797 39.4764 6.77367 39.1365L20.174 7.86906C20.3463 7.46705 20.6329 7.12449 20.9982 6.88389C21.3635 6.64329 21.7913 6.51524 22.2287 6.51563H44.5626C44.9324 6.5153 45.2965 6.60678 45.6222 6.78188C45.9479 6.95697 46.225 7.21019 46.4287 7.51881C46.6323 7.82743 46.7562 8.18179 46.7891 8.55009C46.8221 8.91839 46.763 9.28911 46.6174 9.62897L36.4644 33.3163Z" fill="#A2ABBC"/>
<path fill-rule="evenodd" clip-rule="evenodd" d="M46.9806 26.8007H29.9487L40.1017 3.11335C40.2474 2.77349 40.3064 2.40277 40.2735 2.03447C40.2406 1.66616 40.1167 1.3118 39.913 1.00318C39.7093 0.694562 39.4322 0.441344 39.1065 0.266251C38.7808 0.0911589 38.4168 -0.000328113 38.047 8.84201e-07H15.7131C15.2757 -0.000388127 14.8478 0.127663 14.4826 0.368264C14.1173 0.608865 13.8307 0.951425 13.6584 1.35344L0.25804 32.6209C0.11235 32.9608 0.0533246 33.3315 0.0862595 33.6998C0.119195 34.0681 0.243059 34.4224 0.446739 34.7311C0.650419 35.0397 0.927539 35.2929 1.25323 35.468C1.57892 35.6431 1.94299 35.7346 2.31276 35.7342H13.3636L0.240172 68.4043C-0.653184 70.6243 2.10282 72.5048 3.84487 70.861L26.286 49.6751L48.4323 30.7315C48.7793 30.4347 49.027 30.0388 49.142 29.5969C49.2571 29.1551 49.234 28.6886 49.0758 28.2603C48.9176 27.832 48.632 27.4625 48.2574 27.2015C47.8827 26.9405 47.4371 26.8006 46.9806 26.8007ZM26.5629 31.2675H40.9325L23.2977 46.3563L8.17764 60.6276L18.7416 34.3317C18.8774 33.9928 18.928 33.6258 18.8891 33.2629C18.8502 32.8999 18.723 32.552 18.5184 32.2496C18.3139 31.9472 18.0384 31.6995 17.7159 31.5283C17.3935 31.3571 17.0341 31.2675 16.669 31.2675H5.69858L17.1871 4.46678H34.6612L24.5082 28.1541C24.3625 28.494 24.3035 28.8647 24.3364 29.233C24.3693 29.6013 24.4932 29.9557 24.6969 30.2643C24.9006 30.5729 25.1777 30.8261 25.5034 31.0012C25.8291 31.1763 26.1931 31.2678 26.5629 31.2675Z" fill="white"/>
</svg>
