<svg width="79" height="77" viewBox="0 0 79 77" fill="none" xmlns="http://www.w3.org/2000/svg">
<path opacity="0.8" d="M20.9247 47.9933C19.9836 47.6773 19.153 46.9889 18.5609 46.0342C17.9689 45.0795 17.6482 43.9114 17.6484 42.7101V18.4238C17.6482 17.2225 17.9689 16.0545 18.5609 15.0997C19.153 14.145 19.9836 13.4566 20.9247 13.1406L54.7094 1.79137C55.3692 1.56984 56.0617 1.53881 56.7329 1.7007C57.4041 1.8626 58.0359 2.21305 58.5792 2.72478C59.1224 3.23651 59.5625 3.89572 59.8651 4.65111C60.1677 5.40651 60.3247 6.23771 60.3239 7.08003V54.0648C60.3233 54.9062 60.1653 55.7362 59.8621 56.4902C59.5589 57.2442 59.1187 57.902 58.5756 58.4125C58.0326 58.923 57.4012 59.2724 56.7307 59.4337C56.0602 59.595 55.3685 59.5638 54.7094 59.3426L20.9247 47.9988V47.9933Z" fill="#BCBCBC"/>
<path opacity="0.8" fill-rule="evenodd" clip-rule="evenodd" d="M26.5392 38.5273L51.4332 46.8874V14.2466L26.5392 22.6066V38.5273ZM17.6484 42.7101C17.6482 43.9114 17.9689 45.0795 18.5609 46.0342C19.153 46.9889 19.9836 47.6773 20.9247 47.9933L54.7094 59.3371C55.3685 59.5584 56.0602 59.5896 56.7307 59.4283C57.4012 59.267 58.0326 58.9175 58.5756 58.407C59.1187 57.8965 59.5589 57.2387 59.8621 56.4847C60.1653 55.7307 60.3233 54.9008 60.3239 54.0594V7.07456C60.324 6.23269 60.1665 5.40213 59.8636 4.64743C59.5607 3.89273 59.1206 3.23423 58.5774 2.72312C58.0342 2.212 57.4027 1.86204 56.7318 1.70044C56.061 1.53884 55.3689 1.56996 54.7094 1.79137L20.9247 13.1406C19.9836 13.4566 19.153 14.145 18.5609 15.0997C17.9689 16.0545 17.6482 17.2225 17.6484 18.4238V42.7101Z" fill="#BCBCBC"/>
<path opacity="0.8" d="M24.8327 42.6118C24.8327 44.0638 24.3643 45.4564 23.5306 46.4831C22.697 47.5098 21.5663 48.0866 20.3873 48.0866H8.11812C7.78046 48.0863 7.44645 48.0006 7.13677 47.8349C6.82709 47.6691 6.54833 47.4268 6.31775 47.1231C-0.763709 37.8159 -0.794827 23.2529 6.32664 13.9895C6.55538 13.6918 6.83107 13.4547 7.13682 13.2927C7.44258 13.1308 7.77196 13.0475 8.10478 13.0479H20.3873C21.5663 13.0479 22.697 13.6247 23.5306 14.6514C24.3643 15.6781 24.8327 17.0707 24.8327 18.5227V42.6118Z" fill="#BCBCBC"/>
<path opacity="0.8" d="M10.9878 46.4765C11.4758 44.1186 12.5876 42.0281 14.1476 40.5351C15.7077 39.042 17.6271 38.2315 19.6029 38.2314H22.1989C23.554 38.2313 24.8911 38.6125 26.1082 39.3461C27.3253 40.0797 28.3901 41.1462 29.2213 42.4642C30.0526 43.7821 30.6282 45.3166 30.9042 46.9504C31.1803 48.5843 31.1494 50.2742 30.8141 51.8911L27.4045 68.3155C26.9156 70.6724 25.8034 72.7616 24.2435 74.2536C22.6835 75.7456 20.7645 76.5554 18.7894 76.5551H10.4765C9.79927 76.5551 9.13095 76.3645 8.52262 75.9978C7.91428 75.6312 7.38201 75.0982 6.96644 74.4396C6.55087 73.7809 6.263 73.0141 6.12479 72.1975C5.98658 71.381 6.0017 70.5363 6.16899 69.728L10.9878 46.4765Z" fill="#BCBCBC"/>
<path opacity="0.8" fill-rule="evenodd" clip-rule="evenodd" d="M22.1989 49.1812H19.6029L16.1977 65.6057H18.7894L22.1989 49.1812ZM19.6029 38.2316C17.6271 38.2317 15.7077 39.0422 14.1476 40.5353C12.5876 42.0283 11.4758 44.1188 10.9878 46.4767L6.16899 69.7282C6.00161 70.5369 5.98657 71.3821 6.12502 72.199C6.26347 73.016 6.55174 73.7832 6.96781 74.4419C7.38387 75.1007 7.91671 75.6336 8.52561 75.9998C9.13451 76.3661 9.80334 76.5561 10.481 76.5553H18.7938C20.7682 76.5543 22.6861 75.744 24.2452 74.2521C25.8043 72.7602 26.9158 70.6716 27.4045 68.3157L30.814 51.8913C31.1494 50.2744 31.1803 48.5845 30.9042 46.9506C30.6282 45.3168 30.0526 43.7823 29.2213 42.4644C28.3901 41.1464 27.3253 40.0799 26.1082 39.3463C24.8911 38.6127 23.554 38.2314 22.1989 38.2316H19.6029ZM78.246 7.81907C78.5701 8.41722 78.7953 9.08813 78.9088 9.79349C79.0223 10.4988 79.0219 11.2248 78.9075 11.93C78.7932 12.6351 78.5671 13.3056 78.2424 13.9032C77.9176 14.5008 77.5004 15.0137 77.0146 15.4126L70.3466 20.8874C69.3657 21.6933 68.165 21.9863 67.0087 21.7019C65.8524 21.4175 64.8352 20.579 64.1809 19.3709C63.5266 18.1628 63.2887 16.6841 63.5196 15.2601C63.7505 13.836 64.4314 12.5832 65.4123 11.7774L72.0803 6.30255C72.566 5.90344 73.1107 5.62607 73.6834 5.48628C74.2562 5.34649 74.8457 5.34703 75.4182 5.48785C75.9908 5.62868 76.5352 5.90704 77.0204 6.30704C77.5056 6.70703 77.9221 7.22082 78.246 7.81907ZM63.4341 30.5669C63.4341 29.1149 63.9024 27.7224 64.7361 26.6956C65.5698 25.6689 66.7005 25.0921 67.8794 25.0921H74.5475C75.7265 25.0921 76.8571 25.6689 77.6908 26.6956C78.5245 27.7224 78.9928 29.1149 78.9928 30.5669C78.9928 32.0189 78.5245 33.4114 77.6908 34.4382C76.8571 35.4649 75.7265 36.0417 74.5475 36.0417H67.8794C66.7005 36.0417 65.5698 35.4649 64.7361 34.4382C63.9024 33.4114 63.4341 32.0189 63.4341 30.5669ZM64.4743 41.0183C64.8496 40.4675 65.3094 40.0132 65.8273 39.6813C66.3452 39.3493 66.9111 39.1463 67.4928 39.0838C68.0744 39.0212 68.6604 39.1004 69.2172 39.3168C69.7739 39.5332 70.2907 39.8825 70.7378 40.3449L76.8724 46.6957C77.7433 47.6408 78.2794 48.968 78.3663 50.3935C78.4532 51.8191 78.0839 53.2299 77.3373 54.3246C76.5907 55.4192 75.5261 56.1108 74.371 56.2515C73.2159 56.3922 72.0619 55.9709 71.1557 55.0776L65.0211 48.7268C64.1192 47.7934 63.555 46.4573 63.4525 45.0119C63.35 43.5666 63.7175 42.1302 64.4743 41.0183Z" fill="#BCBCBC"/>
<path fill-rule="evenodd" clip-rule="evenodd" d="M23.7425 15.747V38.477L55.3623 49.0991V5.12503L23.7425 15.747ZM19.582 38.477C19.5818 39.6014 19.8819 40.6946 20.4361 41.5881C20.9902 42.4817 21.7675 43.126 22.6483 43.4217L54.2681 54.0386C54.885 54.2457 55.5324 54.2749 56.1599 54.1239C56.7875 53.973 57.3783 53.6459 57.8866 53.1681C58.3949 52.6903 58.8069 52.0747 59.0907 51.369C59.3744 50.6633 59.5223 49.8865 59.5228 49.0991V5.12503C59.523 4.33711 59.3755 3.55977 59.0921 2.85343C58.8086 2.14709 58.3966 1.53079 57.8883 1.05243C57.3799 0.574063 56.7888 0.24653 56.161 0.0952858C55.5331 -0.0559579 54.8854 -0.0268369 54.2681 0.180386L22.6483 10.8024C21.7675 11.0981 20.9902 11.7424 20.4361 12.6359C19.8819 13.5295 19.5818 14.6227 19.582 15.747V38.477Z" fill="white"/>
<path fill-rule="evenodd" clip-rule="evenodd" d="M11.4938 38.3844H19.9979V15.8388H11.4814C9.33073 18.9988 8.1531 22.9912 8.15539 27.1144C8.15767 31.2376 9.33971 35.228 11.4938 38.3844ZM19.9979 43.5083C21.1013 43.5083 22.1596 42.9685 22.9398 42.0076C23.7201 41.0466 24.1584 39.7433 24.1584 38.3844V15.8388C24.1584 14.4799 23.7201 13.1766 22.9398 12.2156C22.1596 11.2547 21.1013 10.7148 19.9979 10.7148H10.6493C10.3378 10.7145 10.0295 10.7925 9.74333 10.944C9.45716 11.0956 9.19914 11.3175 8.98506 11.5962C2.31994 20.2608 2.34906 33.9009 8.97674 42.6065C9.19254 42.8908 9.45344 43.1176 9.74327 43.2727C10.0331 43.4278 10.3457 43.508 10.6617 43.5083H19.9979Z" fill="white"/>
<path fill-rule="evenodd" clip-rule="evenodd" d="M27.3558 46.4297L16.913 44.995L12.844 65.0298H23.8111L27.3558 46.4297ZM17.3706 39.9069C16.3703 39.7691 15.3634 40.0825 14.5364 40.7891C13.7094 41.4958 13.1185 42.5477 12.8731 43.7499L8.8083 63.7846C8.65462 64.5402 8.64282 65.3289 8.77379 66.0909C8.90475 66.8529 9.17505 67.5681 9.56412 68.1821C9.95319 68.7962 10.4508 69.2929 11.0191 69.6345C11.5875 69.9762 12.2116 70.1537 12.844 70.1538H23.8111C24.7498 70.1542 25.6611 69.7635 26.3968 69.0454C27.1325 68.3272 27.6493 67.3237 27.8634 66.198L31.4081 47.598C31.543 46.892 31.5546 46.1588 31.4422 45.4468C31.3299 44.7349 31.0961 44.0604 30.7563 43.468C30.4165 42.8757 29.9784 42.3789 29.4711 42.0105C28.9638 41.6422 28.3988 41.4107 27.8135 41.3313L17.3706 39.9069ZM74.565 7.2466C74.8704 7.81202 74.9811 8.50364 74.8726 9.16948C74.7642 9.83532 74.4455 10.4209 73.9867 10.7975L67.7459 15.9215C67.5189 16.1198 67.2619 16.2599 66.9901 16.3336C66.7183 16.4073 66.4372 16.4131 66.1636 16.3506C65.8899 16.2882 65.6292 16.1587 65.3969 15.9699C65.1646 15.7811 64.9654 15.5368 64.8112 15.2515C64.6569 14.9662 64.5507 14.6457 64.4989 14.3089C64.447 13.9722 64.4506 13.626 64.5093 13.2909C64.568 12.9559 64.6807 12.6388 64.8408 12.3583C65.0008 12.0779 65.2049 11.8399 65.441 11.6584L71.6818 6.53437C72.1409 6.15823 72.7024 6.02196 73.2431 6.15551C73.7837 6.28906 74.2592 6.68151 74.565 7.2466ZM64.5132 27.1123C64.5132 26.4328 64.7324 25.7812 65.1225 25.3007C65.5126 24.8202 66.0418 24.5503 66.5935 24.5503H72.8342C73.3859 24.5503 73.9151 24.8202 74.3052 25.3007C74.6953 25.7812 74.9145 26.4328 74.9145 27.1123C74.9145 27.7918 74.6953 28.4434 74.3052 28.9239C73.9151 29.4044 73.3859 29.6743 72.8342 29.6743H66.5935C66.0418 29.6743 65.5126 29.4044 65.1225 28.9239C64.7324 28.4434 64.5132 27.7918 64.5132 27.1123ZM65 38.5388C65.1761 38.2812 65.3917 38.0689 65.6345 37.9141C65.8773 37.7592 66.1424 37.6648 66.4148 37.6362C66.6873 37.6077 66.9616 37.6455 67.2221 37.7477C67.4826 37.8498 67.7242 38.0141 67.9332 38.2313L73.6747 44.17C74.0741 44.615 74.3178 45.2335 74.3545 45.8953C74.3912 46.5571 74.2181 47.2106 73.8715 47.7184C73.525 48.2262 73.032 48.5486 72.4963 48.6179C71.9607 48.6872 71.4241 48.4979 70.9995 48.0899L65.258 42.1461C64.8356 41.7096 64.5712 41.0845 64.5228 40.4082C64.4745 39.7318 64.6461 39.0594 65 38.5388Z" fill="white"/>
</svg>
