<svg width="56" height="71" viewBox="0 0 56 71" fill="none" xmlns="http://www.w3.org/2000/svg">
<path opacity="0.8" d="M32.3223 50.853L12.9225 70.3823C12.6311 70.676 12.2591 70.8766 11.8536 70.9586C11.4481 71.0406 11.0274 71.0003 10.6448 70.8428C10.2623 70.6853 9.93511 70.4177 9.70486 70.074C9.47461 69.7303 9.35165 69.3259 9.35156 68.9122V10.4413C9.35156 9.88744 9.57157 9.35628 9.9632 8.96466C10.3548 8.57304 10.886 8.35303 11.4398 8.35303H53.2047C53.7586 8.35303 54.2897 8.57304 54.6814 8.96466C55.073 9.35628 55.293 9.88744 55.293 10.4413V68.9122C55.2929 69.3259 55.1699 69.7303 54.9397 70.074C54.7094 70.4177 54.3823 70.6853 53.9997 70.8428C53.6172 71.0003 53.1965 71.0406 52.7909 70.9586C52.3854 70.8766 52.0134 70.676 51.7221 70.3823L32.3223 50.853Z" fill="#A2ABBC"/>
<path fill-rule="evenodd" clip-rule="evenodd" d="M4.567 62.0293L23.9668 42.5L43.3666 62.0293C43.658 62.323 44.03 62.5236 44.4355 62.6056C44.841 62.6875 45.2617 62.6472 45.6443 62.4897C46.0268 62.3322 46.354 62.0647 46.5842 61.7209C46.8145 61.3772 46.9374 60.9729 46.9375 60.5592V2.08825C46.9375 1.53441 46.7175 1.00326 46.3259 0.611634C45.9343 0.220011 45.4031 0 44.8493 0H3.08434C2.5305 0 1.99935 0.220011 1.60773 0.611634C1.21611 1.00326 0.996094 1.53441 0.996094 2.08825V60.5592C0.996177 60.9729 1.11914 61.3772 1.34939 61.7209C1.57964 62.0647 1.9068 62.3322 2.28935 62.4897C2.67191 62.6472 3.09263 62.6875 3.49814 62.6056C3.90364 62.5236 4.27566 62.323 4.567 62.0293ZM5.17259 55.4931V4.17649H42.761V55.4931L25.4495 38.0687C25.2553 37.873 25.0244 37.7177 24.7699 37.6116C24.5154 37.5056 24.2425 37.451 23.9668 37.451C23.6911 37.451 23.4182 37.5056 23.1637 37.6116C22.9092 37.7177 22.6783 37.873 22.4842 38.0687L5.17259 55.4931Z" fill="white"/>
</svg>
