<svg width="63" height="71" viewBox="0 0 63 71" fill="none" xmlns="http://www.w3.org/2000/svg">
<path fill-rule="evenodd" clip-rule="evenodd" d="M20.3182 48.3907C18.7014 49.2504 16.8853 49.6651 15.0556 49.5923C13.226 49.5195 11.4485 48.9618 9.9052 47.9763C8.36188 46.9909 7.10813 45.613 6.27227 43.9838C5.43641 42.3546 5.04846 40.5326 5.14814 38.7042C5.24781 36.8758 5.83153 35.1067 6.83954 33.578C7.84756 32.0494 9.24367 30.816 10.885 30.0041C12.5263 29.1923 14.3538 28.8311 16.1805 28.9577C18.0073 29.0842 19.7676 29.6938 21.2813 30.7242L42.3332 18.2823C42.4095 15.8238 43.3603 13.473 45.0146 11.6527C46.6689 9.8324 48.9183 8.66189 51.3585 8.35161C53.7986 8.04133 56.2693 8.61163 58.3266 9.95999C60.3839 11.3083 61.8927 13.3463 62.5818 15.7076C63.271 18.0688 63.0953 20.5984 62.0863 22.8417C61.0773 25.085 59.3012 26.8948 57.0773 27.9458C54.8533 28.9968 52.3275 29.22 49.9537 28.5753C47.5799 27.9307 45.5139 26.4604 44.1271 24.4289L25.142 35.6472C25.6327 36.9543 25.8528 38.3476 25.7888 39.7424C25.7249 41.1372 25.3782 42.5044 24.77 43.7612L44.0238 54.2603C45.3752 52.2032 47.4165 50.6961 49.7802 50.0101C52.1439 49.3241 54.6749 49.5043 56.9176 50.5182C59.1603 51.5322 60.9675 53.3133 62.0138 55.541C63.0602 57.7688 63.2771 60.2969 62.6254 62.6703C61.9738 65.0437 60.4964 67.1066 58.4591 68.4878C56.4219 69.8689 53.9586 70.4775 51.5126 70.2041C49.0666 69.9307 46.7984 68.7932 45.1164 66.9964C43.4344 65.1996 42.4489 62.8614 42.3373 60.4027L20.3182 48.3949V48.3907Z" fill="#A2ABBC"/>
<path fill-rule="evenodd" clip-rule="evenodd" d="M11.3298 41.335C14.0705 41.335 16.6989 40.2462 18.6369 38.3083C20.5748 36.3703 21.6636 33.7419 21.6636 31.0012C21.6636 28.2605 20.5748 25.6321 18.6369 23.6942C16.6989 21.7562 14.0705 20.6675 11.3298 20.6675C8.58916 20.6675 5.96073 21.7562 4.02278 23.6942C2.08482 25.6321 0.996094 28.2605 0.996094 31.0012C0.996094 33.7419 2.08482 36.3703 4.02278 38.3083C5.96073 40.2462 8.58916 41.335 11.3298 41.335ZM11.3298 24.801C12.9742 24.801 14.5513 25.4542 15.7141 26.617C16.8768 27.7798 17.5301 29.3568 17.5301 31.0012C17.5301 32.6456 16.8768 34.2227 15.7141 35.3855C14.5513 36.5482 12.9742 37.2015 11.3298 37.2015C9.68543 37.2015 8.10837 36.5482 6.9456 35.3855C5.78283 34.2227 5.12959 32.6456 5.12959 31.0012C5.12959 29.3568 5.78283 27.7798 6.9456 26.617C8.10837 25.4542 9.68543 24.801 11.3298 24.801ZM48.5313 20.6675C51.272 20.6675 53.9004 19.5788 55.8384 17.6408C57.7763 15.7028 58.865 13.0744 58.865 10.3337C58.865 7.59306 57.7763 4.96464 55.8384 3.02668C53.9004 1.08873 51.272 0 48.5313 0C45.7906 0 43.1622 1.08873 41.2242 3.02668C39.2863 4.96464 38.1976 7.59306 38.1976 10.3337C38.1976 13.0744 39.2863 15.7028 41.2242 17.6408C43.1622 19.5788 45.7906 20.6675 48.5313 20.6675ZM48.5313 4.1335C50.1757 4.1335 51.7528 4.78674 52.9155 5.94951C54.0783 7.11228 54.7316 8.68933 54.7316 10.3337C54.7316 11.9781 54.0783 13.5552 52.9155 14.718C51.7528 15.8807 50.1757 16.534 48.5313 16.534C46.8869 16.534 45.3098 15.8807 44.1471 14.718C42.9843 13.5552 42.3311 11.9781 42.3311 10.3337C42.3311 8.68933 42.9843 7.11228 44.1471 5.94951C45.3098 4.78674 46.8869 4.1335 48.5313 4.1335ZM48.5313 62.0025C51.272 62.0025 53.9004 60.9137 55.8384 58.9758C57.7763 57.0378 58.865 54.4094 58.865 51.6687C58.865 48.928 57.7763 46.2996 55.8384 44.3617C53.9004 42.4237 51.272 41.335 48.5313 41.335C45.7906 41.335 43.1622 42.4237 41.2242 44.3617C39.2863 46.2996 38.1976 48.928 38.1976 51.6687C38.1976 54.4094 39.2863 57.0378 41.2242 58.9758C43.1622 60.9137 45.7906 62.0025 48.5313 62.0025ZM48.5313 45.4685C50.1757 45.4685 51.7528 46.1217 52.9155 47.2845C54.0783 48.4472 54.7316 50.0243 54.7316 51.6687C54.7316 53.3131 54.0783 54.8902 52.9155 56.0529C51.7528 57.2157 50.1757 57.869 48.5313 57.869C46.8869 57.869 45.3098 57.2157 44.1471 56.0529C42.9843 54.8902 42.3311 53.3131 42.3311 51.6687C42.3311 50.0243 42.9843 48.4472 44.1471 47.2845C45.3098 46.1217 46.8869 45.4685 48.5313 45.4685Z" fill="white"/>
<path d="M18.5764 27.6117L16.4766 24.0569L39.2108 10.623L41.3106 14.1779L18.5764 27.6117ZM40.2607 51.1644L42.2406 47.5352L19.5064 35.1347L17.5265 38.7639L40.2607 51.1644Z" fill="white"/>
</svg>
