<svg width="72" height="57" viewBox="0 0 72 57" fill="none" xmlns="http://www.w3.org/2000/svg">
<path opacity="0.8" fill-rule="evenodd" clip-rule="evenodd" d="M32.4443 4.93103C32.4443 3.88846 32.8585 2.88858 33.5957 2.15137C34.3329 1.41416 35.3328 1 36.3754 1C37.4179 1 38.4178 1.41416 39.155 2.15137C39.8922 2.88858 40.3064 3.88846 40.3064 4.93103V12.9189C42.5078 13.0643 44.6581 13.3277 46.7297 13.7051L48.2432 6.12606C48.4475 5.1033 49.0498 4.2036 49.9175 3.62489C50.7852 3.04618 51.8472 2.83586 52.87 3.04021C53.8927 3.24455 54.7924 3.84682 55.3712 4.71451C55.9499 5.58221 56.1602 6.64426 55.9558 7.66703L54.348 15.6942C56.3725 16.4057 58.2673 17.2352 60.0087 18.1747L64.4508 10.7725C64.9872 9.87801 65.857 9.23321 66.8688 8.97998C67.8806 8.72674 68.9516 8.88583 69.8461 9.42223C70.7407 9.95864 71.3855 10.8284 71.6387 11.8402C71.8919 12.8521 71.7329 13.923 71.1964 14.8176L66.4084 22.7779C69.7931 26.08 71.7547 30.0346 71.7547 34.4138C71.7547 46.9616 55.6256 56.0344 36.3754 56.0344C17.1251 56.0344 0.996094 46.9616 0.996094 34.4138C0.996094 30.0346 2.96161 26.08 6.33837 22.7818L1.55823 14.8136C1.29263 14.371 1.11682 13.8803 1.04084 13.3697C0.964858 12.8591 0.990193 12.3385 1.1154 11.8377C1.2406 11.3369 1.46323 10.8656 1.77056 10.4508C2.07789 10.0361 2.46391 9.68587 2.90658 9.42027C3.34924 9.15467 3.83989 8.97886 4.3505 8.90288C4.86111 8.8269 5.38169 8.85223 5.88251 8.97744C6.38334 9.10264 6.85459 9.32526 7.26938 9.6326C7.68416 9.93993 8.03435 10.3259 8.29995 10.7686L12.742 18.1747C14.4835 17.2352 16.3782 16.4057 18.4027 15.6981L16.7949 7.66703C16.5906 6.64426 16.8009 5.58221 17.3796 4.71451C17.9583 3.84682 18.858 3.24455 19.8808 3.04021C20.9035 2.83586 21.9656 3.04618 22.8333 3.62489C23.701 4.2036 24.3032 5.1033 24.5076 6.12606L26.021 13.7012C28.1456 13.319 30.2902 13.0579 32.4443 12.9189V4.93103ZM24.5823 22.0507C15.1871 24.3896 8.85816 29.3427 8.85816 34.4138C8.85816 41.4031 20.8871 48.1724 36.3754 48.1724C51.8636 48.1724 63.8926 41.4031 63.8926 34.4138C63.8926 29.3427 57.5636 24.3896 48.1685 22.0507C50.1694 24.3204 51.473 27.1193 51.9228 30.1115C52.3726 33.1037 51.9496 36.1621 50.7044 38.9198C49.4592 41.6776 47.4447 44.0174 44.9028 45.6588C42.3608 47.3001 39.3992 48.1731 36.3734 48.1731C33.3476 48.1731 30.386 47.3001 27.8441 45.6588C25.3021 44.0174 23.2877 41.6776 22.0425 38.9198C20.7973 36.1621 20.3742 33.1037 20.824 30.1115C21.2738 27.1193 22.5774 24.3204 24.5784 22.0507H24.5823Z" fill="#A2ABBC"/>
<path fill-rule="evenodd" clip-rule="evenodd" d="M34.4099 51.1033C52.7206 51.1033 67.8236 42.6083 67.8236 31.4481C67.8236 20.2879 52.7206 11.793 34.4099 11.793C16.0991 11.793 0.996094 20.2879 0.996094 31.4481C0.996094 42.6083 16.0991 51.1033 34.4099 51.1033ZM34.4099 15.724C50.8376 15.724 63.8926 23.0672 63.8926 31.4481C63.8926 39.8291 50.8376 47.1722 34.4099 47.1722C17.9821 47.1722 4.92712 39.8291 4.92712 31.4481C4.92712 23.0672 17.9821 15.724 34.4099 15.724Z" fill="white"/>
<path d="M32.4447 1.96552C32.4447 1.44423 32.6518 0.944292 33.0204 0.575687C33.389 0.207081 33.8889 0 34.4102 0C34.9315 0 35.4314 0.207081 35.8 0.575687C36.1686 0.944292 36.3757 1.44423 36.3757 1.96552V13.7586C36.3757 14.2799 36.1686 14.7798 35.8 15.1484C35.4314 15.517 34.9315 15.7241 34.4102 15.7241C33.8889 15.7241 33.389 15.517 33.0204 15.1484C32.6518 14.7798 32.4447 14.2799 32.4447 13.7586V1.96552ZM48.2081 3.54579C48.3252 3.04984 48.6303 2.61875 49.0591 2.34342C49.4879 2.0681 50.0069 1.97007 50.5065 2.07C51.0062 2.16994 51.4476 2.46003 51.7375 2.8791C52.0274 3.29817 52.1432 3.81345 52.0605 4.31627L50.095 14.1438C49.978 14.6398 49.6728 15.0709 49.244 15.3462C48.8153 15.6215 48.2963 15.7196 47.7966 15.6196C47.2969 15.5197 46.8556 15.2296 46.5657 14.8105C46.2758 14.3915 46.1599 13.8762 46.2426 13.3734L48.2081 3.54579ZM20.6123 3.54579C20.4952 3.04984 20.1901 2.61875 19.7613 2.34342C19.3325 2.0681 18.8136 1.97007 18.3139 2.07C17.8142 2.16994 17.3729 2.46003 17.0829 2.8791C16.793 3.29817 16.6772 3.81345 16.7599 4.31627L18.7254 14.1438C18.7682 14.4042 18.863 14.6532 19.0041 14.8761C19.1451 15.099 19.3297 15.2912 19.5466 15.4413C19.7636 15.5914 20.0085 15.6963 20.2669 15.7497C20.5252 15.8031 20.7917 15.804 21.0503 15.7523C21.309 15.7005 21.5546 15.5973 21.7726 15.4486C21.9905 15.2999 22.1763 15.1089 22.3188 14.8869C22.4613 14.6649 22.5577 14.4165 22.6022 14.1565C22.6467 13.8964 22.6384 13.6301 22.5778 13.3734L20.6123 3.54579ZM4.64838 8.8173C4.5157 8.59584 4.34071 8.40268 4.13339 8.24884C3.92607 8.09501 3.69047 7.98352 3.44006 7.92073C3.18965 7.85795 2.92933 7.8451 2.67395 7.88292C2.41858 7.92074 2.17315 8.00849 1.95169 8.14117C1.73023 8.27384 1.53706 8.44883 1.38323 8.65615C1.22939 8.86347 1.1179 9.09906 1.05512 9.34948C0.992332 9.59989 0.979484 9.86021 1.01731 10.1156C1.05513 10.371 1.14288 10.6164 1.27555 10.8379L7.1721 20.6654C7.44004 21.1127 7.87468 21.4352 8.38041 21.562C8.88614 21.6888 9.42152 21.6095 9.86878 21.3416C10.316 21.0736 10.6386 20.639 10.7654 20.1333C10.8922 19.6275 10.8129 19.0921 10.5449 18.6449L4.64838 8.8173ZM64.172 8.8173C64.3047 8.59584 64.4797 8.40268 64.687 8.24884C64.8944 8.09501 65.1299 7.98352 65.3804 7.92073C65.6308 7.85795 65.8911 7.8451 66.1465 7.88292C66.4018 7.92074 66.6473 8.00849 66.8687 8.14117C67.0902 8.27384 67.2834 8.44883 67.4372 8.65615C67.591 8.86347 67.7025 9.09906 67.7653 9.34948C67.8281 9.59989 67.8409 9.86021 67.8031 10.1156C67.7653 10.371 67.6775 10.6164 67.5449 10.8379L61.6483 20.6654C61.5157 20.8869 61.3407 21.0801 61.1333 21.2339C60.926 21.3877 60.6904 21.4992 60.44 21.562C60.1896 21.6248 59.9293 21.6376 59.6739 21.5998C59.4185 21.562 59.1731 21.4742 58.9516 21.3416C58.7302 21.2089 58.537 21.0339 58.3832 20.8266C58.2293 20.6193 58.1179 20.3837 58.0551 20.1333C57.9923 19.8828 57.9794 19.6225 58.0173 19.3671C58.0551 19.1118 58.1428 18.8663 58.2755 18.6449L64.172 8.8173ZM46.2033 29.4827C46.2033 32.6105 44.9608 35.6101 42.7492 37.8217C40.5376 40.0333 37.5379 41.2758 34.4102 41.2758C31.2825 41.2758 28.2829 40.0333 26.0712 37.8217C23.8596 35.6101 22.6171 32.6105 22.6171 29.4827C22.6171 26.355 23.8596 23.3554 26.0712 21.1438C28.2829 18.9321 31.2825 17.6896 34.4102 17.6896C37.5379 17.6896 40.5376 18.9321 42.7492 21.1438C44.9608 23.3554 46.2033 26.355 46.2033 29.4827Z" fill="white"/>
</svg>
