<svg width="67" height="71" viewBox="0 0 67 71" fill="none" xmlns="http://www.w3.org/2000/svg">
<path opacity="0.8" d="M6.07555 32.7025C5.69552 32.6027 5.35712 32.3846 5.10939 32.0796C4.86165 31.7746 4.71745 31.3987 4.69766 31.0063C4.67788 30.6139 4.78354 30.2254 4.99934 29.897C5.21515 29.5687 5.52988 29.3176 5.89795 29.1801L64.0434 7.51659C64.3654 7.39677 64.7143 7.36895 65.0511 7.43623C65.388 7.5035 65.6994 7.66324 65.9506 7.89753C66.2018 8.13182 66.3828 8.43141 66.4734 8.76276C66.5639 9.09411 66.5604 9.44412 66.4632 9.77359L48.9104 69.2881C48.7993 69.6619 48.5729 69.991 48.2635 70.2284C47.9541 70.4658 47.5776 70.5994 47.1878 70.6101C46.798 70.6207 46.4148 70.5079 46.0929 70.2878C45.771 70.0677 45.5269 69.7514 45.3955 69.3843L35.0169 40.2727L6.07555 32.7025Z" fill="white"/>
<path fill-rule="evenodd" clip-rule="evenodd" d="M2.37633 25.3021L31.3214 32.8723L41.6925 61.9839C41.824 62.3511 42.0681 62.6673 42.39 62.8874C42.7118 63.1076 43.0951 63.2203 43.4849 63.2097C43.8747 63.199 44.2512 63.0654 44.5606 62.828C44.8699 62.5906 45.0964 62.2615 45.2075 61.8877L62.764 2.3732C62.8612 2.04373 62.8647 1.69372 62.7741 1.36237C62.6836 1.03102 62.5026 0.731426 62.2514 0.497135C62.0002 0.262845 61.6888 0.103114 61.3519 0.0358345C61.0151 -0.0314452 60.6662 -0.00361678 60.3442 0.116203L2.19873 21.7797C1.83066 21.9172 1.51593 22.1683 1.30012 22.4966C1.08432 22.825 0.978656 23.2135 0.998442 23.6059C1.01823 23.9983 1.16243 24.3742 1.41017 24.6792C1.6579 24.9842 1.9963 25.2023 2.37633 25.3021ZM8.97343 23.2042L58.1686 4.8744L43.2687 55.3868L34.4775 30.7078C34.3761 30.4247 34.2071 30.1706 33.9854 29.9675C33.7636 29.7645 33.4956 29.6185 33.2047 29.5423L8.97343 23.2042Z" fill="white"/>
<path d="M58.3401 2.50586L60.956 5.12176L32.4401 33.6377L29.8242 31.0218L58.3401 2.50586Z" fill="white"/>
</svg>
